<?xml version="1.0" standalone="no"?>
<!DOCTYPE svg PUBLIC "-//W3C//DTD SVG 1.1//EN" "http://www.w3.org/Graphics/SVG/1.1/DTD/svg11.dtd" >
<svg xmlns="http://www.w3.org/2000/svg">
  <metadata>Created by iconfont</metadata>
  <defs>
  <font id="iconfont" horiz-adv-x="1024">
    <font-face
      font-family="iconfont"
      font-weight="400"
      font-stretch="normal"
      units-per-em="1024"
      ascent="896"
      descent="-128"
    />
      <missing-glyph />
      
      <glyph glyph-name="jiaoyijilu" unicode="&#58894;" d="M372.40415 453.49784l-247.496837 0c-39.21821 0-52.147684 21.028942-55.899124 30.066783s-9.463536 33.023114 18.273179 60.758806l79.913051 79.913051c11.367909 11.381212 29.782304 11.381212 41.150212 0 11.366885-11.366885 11.366885-29.782304 0-41.150212l-71.387887-71.387887 235.447407 0c16.08535 0 29.100782-13.015432 29.100782-29.100782C401.504932 466.514295 388.4895 453.49784 372.40415 453.49784zM539.845697 111.509932c-7.444553 0-14.891152 2.841721-20.573571 8.525164-11.367909 11.366885-11.367909 29.782304 0 41.150212l71.415516 71.387887L94.925465 232.573195c-16.08535 0-29.100782 13.015432-29.100782 29.100782 0 16.084327 13.015432 29.100782 29.100782 29.100782l507.811608 0c39.216163 0 52.147684-21.030989 55.899124-30.067806s9.463536-33.022091-18.274202-60.758806l-79.939657-79.913051C554.737872 114.351654 547.291273 111.509932 539.845697 111.509932zM712.346469 335.448214c-134.533043 0-243.973594 109.467157-243.973594 244.001223 0 134.576021 109.440551 244.043179 243.973594 244.043179 134.561695 0 244.030899-109.468181 244.030899-244.043179C956.377368 444.915371 846.908164 335.448214 712.346469 335.448214zM712.346469 765.292076c-102.4483 0-185.772031-83.35136-185.772031-185.842639 0-102.421694 83.323731-185.800683 185.772031-185.800683 102.476953 0 185.830359 83.378989 185.830359 185.800683C898.176828 681.940716 814.823422 765.292076 712.346469 765.292076zM842.27668 549.212786 708.707592 549.212786c-16.083304 0-29.100782 13.014408-29.100782 29.100782L679.606811 684.95333c0 16.084327 13.017478 29.100782 29.100782 29.100782 16.086373 0 29.100782-13.016455 29.100782-29.100782l0-77.538981L842.27668 607.414349c16.084327 0 29.100782-13.016455 29.100782-29.100782C871.376439 562.227194 858.361007 549.212786 842.27668 549.212786z"  horiz-adv-x="1024" />
      
      <glyph glyph-name="ico-group-power" unicode="&#58985;" d="M807.424 211.314v67.586h-278.714v-67.586h60.664c17.78 0 32.364-14.816 32.364-32.424v-160.672c0-17.814-14.582-32.396-32.364-32.396h-160.458c-17.812 0-32.612 14.584-32.612 32.396v160.672c0 17.61 14.8 32.424 32.612 32.424h60.414v67.586h-271.7v-67.586h60.54c17.69 0 32.458-14.816 32.458-32.424v-160.672c0-17.814-14.768-32.396-32.458-32.396h-160.576c-18.12 0-32.674 14.584-32.674 32.396v160.672c0 17.61 14.554 32.424 32.674 32.424h60.664v87.26c0 10.876 8.78 19.672 19.392 19.672h291.682v136.58h-112.016c-18.122 0-32.458 14.832-32.458 32.86v0.696l0 262.778c0 18.028 14.334 32.396 32.458 32.396h263.382c18.152 0 32.706-14.368 32.706-32.396v-263.474c0-18.030-14.554-32.86-32.706-32.86h-111.986v-136.58h298.634c10.61 0 19.174-8.796 19.174-19.672v-87.26h53.9c17.936 0 32.52-14.816 32.52-32.424v-160.672c0-17.814-14.584-32.396-32.52-32.396h-160.334c-18.34 0-32.704 14.584-32.704 32.396v160.672c0 17.61 14.366 32.424 32.704 32.424h67.338z"  horiz-adv-x="1024" />
      
      <glyph glyph-name="group" unicode="&#59374;" d="M512 191.9c-4.7 0-9.4 1-13.8 3.1l-352 168.1c-11.2 5.4-18.3 16.7-18.2 29.2 0.1 12.4 7.4 23.7 18.8 28.8l88 40c16.1 7.3 35.1 0.2 42.4-15.9 7.3-16.1 0.2-35.1-15.9-42.4l-25.5-11.6L512 259.4l276.2 131.9-21.1 9.6c-16.1 7.3-23.2 26.3-15.9 42.4 7.3 16.1 26.3 23.2 42.4 15.9l83.7-38c11.3-5.1 18.6-16.4 18.8-28.8 0.1-12.4-7-23.8-18.2-29.2l-352-168.1c-4.5-2.1-9.2-3.2-13.9-3.2zM512-0.1c-4.7 0-9.4 1-13.8 3.1l-352 168.1c-11.2 5.4-18.3 16.7-18.2 29.2 0.1 12.4 7.4 23.7 18.8 28.8l88 40c16.1 7.3 35.1 0.2 42.4-15.9 7.3-16.1 0.2-35.1-15.9-42.4l-25.5-11.6L512 67.4l276.2 131.9-21.1 9.6c-16.1 7.3-23.2 26.3-15.9 42.4 7.3 16.1 26.3 23.2 42.4 15.9l83.7-38c11.3-5.1 18.6-16.4 18.8-28.8 0.1-12.4-7-23.8-18.2-29.2l-352-168.1c-4.5-2.1-9.2-3.2-13.9-3.2zM512.1 381c-4.5 0-9.1 1-13.3 2.9l-8.6 3.9c-0.1 0.1-0.2 0.1-0.3 0.2L146.4 549.5c-11.3 5.3-18.5 16.8-18.4 29.3 0.1 12.5 7.5 23.8 18.9 28.9l352 157.5c8.3 3.7 17.8 3.7 26.1 0l352-157.5c11.4-5.1 18.8-16.4 18.9-28.9 0.1-12.5-7.1-23.9-18.4-29.3L534.2 388c-0.1 0-0.1-0.1-0.2-0.1l-8.5-3.9c-4.3-2-8.8-3-13.4-3z m8.5 35.9zM236.7 577.7L512 448.3l275.3 129.5L512 700.9 236.7 577.7z"  horiz-adv-x="1024" />
      
      <glyph glyph-name="ServiceGroup" unicode="&#59029;" d="M650.368 33.28l-3.072 3.072c-15.36 15.36-39.936 21.504-60.928 15.36-22.016-6.144-44.544-9.728-68.096-9.728-24.576 0-48.64 3.584-71.68 10.24-23.552 7.168-48.64-2.56-61.44-24.064-8.192-14.336-9.728-31.232-4.096-46.592 6.144-15.36 18.432-27.136 34.304-31.744 33.28-10.24 67.584-15.36 102.912-15.36 35.84 0 71.168 5.12 104.96 15.872 15.36 5.12 27.648 16.896 33.792 31.744 5.632 15.36 4.608 31.744-3.584 46.08l-3.072 5.12zM704.64 478.72c17.408-16.896 32.768-36.864 44.544-58.368 11.776-20.992 19.968-44.032 25.088-67.584 5.12-24.064 26.112-41.472 50.176-42.496h2.048c15.872 0 30.72 7.168 40.96 18.944 10.752 12.8 14.848 29.184 11.264 45.056-7.168 33.792-19.456 66.56-36.352 97.28-16.896 31.232-38.912 59.392-64.512 83.968-11.776 11.264-27.648 16.384-44.032 14.336-16.384-2.048-30.208-11.264-38.912-25.088-12.288-21.504-8.192-49.152 9.728-66.048zM209.536 311.808c2.048 0 4.096 0 6.144 0.512 24.576 2.56 44.032 22.016 47.104 47.104 2.56 24.576 9.216 48.64 18.944 71.168 9.728 22.528 23.04 43.52 38.4 61.952 15.36 18.944 16.896 45.568 2.56 65.536-9.728 13.312-24.576 22.016-40.96 22.528-16.384 1.024-32.256-6.144-43.008-18.432-22.528-26.112-40.96-55.808-55.296-88.064-14.336-32.768-23.552-67.072-27.136-101.376-2.048-16.384 3.584-32.256 14.848-44.032 10.752-11.264 24.064-16.896 38.4-16.896zM403.072 522.752c9.728-16.896 27.648-27.136 47.104-27.136h131.584c19.456 0 37.376 10.24 47.104 27.136l66.048 114.176c9.728 16.896 9.728 37.376 0 54.272l-66.048 114.176c-9.728 16.896-27.648 27.136-47.104 27.136H450.176c-19.456 0-37.376-10.24-47.104-27.136L337.536 691.2c-9.728-16.896-9.728-37.376 0-54.272l65.536-114.176z m24.576 141.312l44.032 76.8h88.576l44.032-76.8-44.032-76.8H471.68l-44.032 76.8zM298.624 254.464c-9.728 16.896-27.648 27.136-47.104 27.136H119.936c-19.456 0-37.376-10.24-47.104-27.136L7.296 140.288c-9.728-16.896-9.728-37.376 0-54.272l66.048-114.176c9.728-16.896 27.648-27.136 47.104-27.136h131.584c19.456 0 37.376 10.24 47.104 27.136l66.048 114.176c9.728 16.896 9.728 37.376 0 54.272l-66.56 114.176z m-24.064-141.312l-44.032-76.8H141.952l-44.032 76.8 44.032 76.8H230.528l44.032-76.8zM1016.96 133.12l-66.048 114.176c-9.728 16.896-27.648 27.136-47.104 27.136h-131.584c-19.456 0-37.376-10.24-47.104-27.136L659.584 133.12c-9.728-16.896-9.728-37.376 0-54.272l66.048-114.176c9.728-16.896 27.648-27.136 47.104-27.136h131.584c19.456 0 37.376 10.24 47.104 27.136l66.048 114.176c9.216 16.384 9.216 37.376-0.512 54.272z m-90.112-27.136l-44.032-76.8H793.728l-44.032 76.8 44.032 76.8h88.576l44.544-76.8z"  horiz-adv-x="1024" />
      
      <glyph glyph-name="work_type_group" unicode="&#59159;" d="M818.176 595.968c0 3.072-1.024 6.144-3.072 9.216l-83.968 82.944c-1.024 2.048-4.096 3.072-7.168 3.072H497.664c-29.696 1.024-54.272-23.552-55.296-53.248v-271.36c0-29.696 24.576-54.272 54.272-54.272h267.264c29.696-1.024 54.272 23.552 55.296 53.248V581.632l-1.024 14.336z m-240.64-215.04c0-13.312-10.24-23.552-23.552-23.552h-46.08c-12.288 0-22.528 11.264-22.528 23.552v46.08c0 13.312 10.24 23.552 23.552 23.552h46.08c13.312 0 23.552-10.24 23.552-23.552l-1.024-46.08z m0 126.976c0-13.312-10.24-23.552-23.552-23.552h-46.08c-12.288 0-22.528 11.264-22.528 23.552v46.08c0 13.312 10.24 23.552 23.552 23.552h46.08c13.312 0 23.552-10.24 23.552-23.552l-1.024-46.08z m128-126.976c0-13.312-10.24-23.552-23.552-23.552h-46.08c-13.312 0-23.552 10.24-23.552 23.552v46.08c0 13.312 10.24 23.552 23.552 23.552h46.08c13.312 0 23.552-10.24 23.552-23.552v-46.08z m0 126.976c0-13.312-10.24-23.552-23.552-23.552h-46.08c-13.312 0-23.552 10.24-23.552 23.552v46.08c0 13.312 10.24 23.552 23.552 23.552h46.08c13.312 0 23.552-10.24 23.552-23.552v-46.08zM438.272 253.952c-29.696 0-54.272 24.576-54.272 54.272V587.776c-32.768 0-59.392-26.624-59.392-59.392v-272.384c0-32.768 17.408-60.416 59.392-60.416h256c32.768 0 58.368 25.6 59.392 58.368H438.272zM318.464 135.168c-29.696 0-54.272 24.576-54.272 54.272V468.992c-32.768 0-59.392-26.624-59.392-59.392v-272.384c0-32.768 17.408-60.416 59.392-60.416h256c32.768 0 58.368 25.6 59.392 58.368H318.464c1.024 0 0 0 0 0z"  horiz-adv-x="1024" />
      
      <glyph glyph-name="jiaoyishuju" unicode="&#59368;" d="M513.024 869.888c-33.792 0-67.072-3.584-99.84-10.24-22.016-4.608-36.352-26.112-31.744-48.64 4.608-22.016 26.112-36.352 48.64-31.744 27.136 5.632 55.296 8.704 82.944 8.704 223.232 0 404.48-181.248 404.48-404.48s-181.248-404.48-404.48-404.48-404.48 181.248-404.48 404.48c0 80.896 24.064 159.232 69.12 226.304 13.312 19.968 28.672 38.4 45.568 55.808 15.872 16.384 15.36 41.984-1.024 57.856-16.384 15.872-41.984 15.36-57.856-1.024-19.968-20.48-38.4-43.008-54.784-67.072C55.296 574.976 26.624 480.768 26.624 383.488c0-268.288 218.112-486.4 486.4-486.4s486.4 218.112 486.4 486.4-218.112 486.4-486.4 486.4zM218.112 451.072c0-22.528 18.432-40.96 40.96-40.96h508.416c16.384 0 31.744 9.728 37.888 25.088s3.072 32.768-8.704 44.544l-132.096 132.096c-15.872 15.872-41.984 15.872-57.856 0-15.872-15.872-15.872-41.984 0-57.856L669.184 491.52h-409.6c-23.04 0.512-41.472-17.92-41.472-40.448zM808.448 315.392c0 22.528-18.432 40.96-40.96 40.96H259.072c-16.384 0-31.744-9.728-37.888-25.088s-3.072-32.768 8.704-44.544l132.096-132.096c8.192-8.192 18.432-11.776 29.184-11.776s20.992 4.096 29.184 11.776c15.872 15.872 15.872 41.984 0 57.856l-62.464 62.464h409.6c22.528-0.512 40.96 17.92 40.96 40.448z"  horiz-adv-x="1024" />
      
      <glyph glyph-name="xiaoxi" unicode="&#59581;" d="M821.333333 96H547.584l-86.464-96.074667a32 32 0 1 0-47.573333 42.816l96 106.666667A32 32 0 0 0 533.333333 160h288a53.333333 53.333333 0 0 1 53.333334 53.333333V661.333333a53.333333 53.333333 0 0 1-53.333334 53.333334H202.666667a53.333333 53.333333 0 0 1-53.333334-53.333334v-448a53.333333 53.333333 0 0 1 53.333334-53.333333h138.666666a32 32 0 0 0 0-64H202.666667c-64.8 0-117.333333 52.533333-117.333334 117.333333V661.333333c0 64.8 52.533333 117.333333 117.333334 117.333334h618.666666c64.8 0 117.333333-52.533333 117.333334-117.333334v-448c0-64.8-52.533333-117.333333-117.333334-117.333333zM704 554.666667a32 32 0 0 0 0-64H320a32 32 0 0 0 0 64h384zM512 384a32 32 0 0 0 0-64H320a32 32 0 0 0 0 64h192z"  horiz-adv-x="1024" />
      
      <glyph glyph-name="xiaoxi1" unicode="&#59160;" d="M806.4 46.933333H217.6c-72.533333 0-132.266667 59.733333-132.266667 132.266667V588.8c0 72.533333 59.733333 132.266667 132.266667 132.266667h588.8c72.533333 0 132.266667-59.733333 132.266667-132.266667v-405.333333c0-76.8-59.733333-136.533333-132.266667-136.533334zM217.6 648.533333c-34.133333 0-64-29.866667-64-64v-405.333333c0-34.133333 29.866667-64 64-64h588.8c34.133333 0 64 29.866667 64 64V588.8c0 34.133333-29.866667 64-64 64H217.6zM529.066667 337.066667c-21.333333 0-42.666667 8.533333-59.733334 21.333333L157.866667 618.666667c-12.8 12.8-17.066667 34.133333-4.266667 51.2 12.8 12.8 34.133333 17.066667 51.2 4.266666l311.466667-260.266666c8.533333-8.533333 21.333333-8.533333 29.866666 0l302.933334 256c17.066667 12.8 38.4 12.8 51.2-4.266667 12.8-12.8 12.8-38.4-4.266667-51.2l-302.933333-256c-21.333333-17.066667-42.666667-21.333333-64-21.333333z"  horiz-adv-x="1024" />
      
      <glyph glyph-name="icf_coin_group" unicode="&#59232;" d="M896 608a167.552 167.552 0 0 0-64-125.44C763.84 422.72 647.04 384 512 384s-251.84 38.72-320 98.56A167.552 167.552 0 0 0 128 608c0 125.44 168.64 224 384 224s384-98.56 384-224zM896 218.56V160c0-125.44-168.64-224-384-224S128 34.56 128 160v58.56C209.6 144 350.08 96 512 96s302.4 48 384 122.56zM896 442.56V384a167.552 167.552 0 0 0-64-125.44C763.84 198.72 647.04 160 512 160s-251.84 38.72-320 98.56A167.552 167.552 0 0 0 128 384v58.56C209.6 368 350.08 320 512 320s302.4 48 384 122.56z"  horiz-adv-x="1024" />
      
      <glyph glyph-name="qukuailian4" unicode="&#58969;" d="M316.5952-63.49824c-20.45952 0-38.98368 4.69504-55.06048 13.96224-60.1856 34.67264-79.27808 128.80896-52.608 258.65728-125.60384 41.8304-197.53472 105.46688-197.53472 174.96576 0 69.55008 71.91552 133.16096 197.53984 174.90432-26.48064 129.73568-7.33184 223.86688 52.7616 258.65216 16.03072 9.27744 34.5344 13.98272 54.99392 13.98272 55.13216 0 124.36992-34.61632 195.31776-97.58208 70.96832 62.93504 140.16512 97.536 195.22048 97.536 20.4544 0 38.98368-4.69504 55.07072-13.96736 60.11904-34.6368 79.26784-128.7168 52.77184-258.49344 125.6192-41.90208 197.53984-105.58976 197.53984-175.11424 0-69.5808-71.92576-133.18144-197.53472-174.8736 26.64448-129.83296 7.49056-223.96416-52.77696-258.65216-16.06144-9.24672-34.56512-13.93664-54.99904-13.93664-55.14752 0-124.37504 34.6368-195.29728 97.62816-70.98368-63.01696-140.24704-97.664-195.4048-97.66912z m239.67744 140.68736c59.17184-50.31936 116.224-80.2304 153.3184-80.2304 9.0368 0 16.71168 1.792 22.81472 5.31456l1.79712 1.03424c30.6944 20.20864 38.98368 93.52704 21.3504 188.89216a951.88992 951.88992 0 0 0-120.68352-21.12 935.296 935.296 0 0 0-78.59712-93.89056z m-264.68352-74.9056c6.07744-3.5072 13.71136-5.28384 22.69184-5.28384 36.99712 0 93.9264 29.96224 152.97024 80.36352a955.43808 955.43808 0 0 0-78.12608 93.88032 966.28736 966.28736 0 0 0-120.832 20.83328c-17.83296-97.14688-8.81664-171.35616 23.28576-189.7984l0.01024 0.00512z m177.84832 163.06688a842.76736 842.76736 0 0 1 42.40384-46.45888 820.52096 820.52096 0 0 1 42.59328 46.208c-14.73536-0.55296-28.71296-0.82944-42.43456-0.82944-12.73344 0-26.1888 0.33792-42.56256 1.08032z m-48.58368 61.96736c30.208-3.13344 60.87168-4.80256 91.17184-4.95104 30.24384 0 60.78976 1.50016 90.80832 4.4544a940.52352 940.52352 0 0 1 49.08032 76.36992 896.07168 896.07168 0 0 1 41.43104 81.55136 956.86144 956.86144 0 0 1-41.2672 80.13312l-0.68608 1.19296a937.60512 937.60512 0 0 1-48.2304 74.76224 933.7344 933.7344 0 0 1-91.19232 4.93568c-30.24896 0-60.78464-1.49504-90.80832-4.43392a945.3568 945.3568 0 0 1-49.24928-76.44672 936.8832 936.8832 0 0 1-41.26208-81.29536c13.17888-28.71808 26.74176-55.03488 41.42592-80.39424a977.1008 977.1008 0 0 1 48.77824-75.8784z m271.83616 30.59712a1170.40128 1170.40128 0 0 0-12.38528-20.10112 850.19136 850.19136 0 0 1 61.42464 13.76768 840.27904 840.27904 0 0 1-18.95936 60.11904 915.31264 915.31264 0 0 0-20.5312-37.62688l-9.5488-16.50176v0.34304z m-410.42432-6.48704c17.71008-4.64384 37.85216-9.00096 61.14816-13.23008a1014.34368 1014.34368 0 0 0-21.66784 35.968 1499.22816 1499.22816 0 0 0-20.43392 36.84864c-8.15104-23.00416-14.3104-42.2656-19.0464-59.58656zM224.0256 498.6624C130.99008 465.69472 71.18336 420.9408 71.18336 384c0-37.01248 59.74016-81.85856 152.6784-114.9184a948.49536 948.49536 0 0 0 42.22464 114.95424 945.80224 945.80224 0 0 0-42.0608 114.62656z m533.88288-114.41152a975.59552 975.59552 0 0 0 42.21952-114.84672c92.94336 33.0496 152.68352 77.77792 152.68352 114.6112 0 36.51072-61.19424 82.42688-152.83712 115.00032a968.2688 968.2688 0 0 0-42.06592-114.7648z m-475.63264 132.352a846.19776 846.19776 0 0 1 18.95424-59.93984c6.08768 11.73504 12.91264 24.53504 20.37248 37.3248a1327.75936 1327.75936 0 0 0 21.96992 36.36224 826.112 826.112 0 0 1-61.29664-13.7472z m398.45376 13.25568c7.91552-12.6208 14.88896-24.05888 21.6832-35.968a1462.40512 1462.40512 0 0 0 20.26496-36.59264c8.16128 22.96832 14.3104 42.1632 19.04128 59.392-17.58208 4.608-37.29408 8.86784-60.98944 13.16864zM291.59424 765.73184c-32.00512-18.49856-40.96-92.73344-23.13728-189.8752a954.04544 954.04544 0 0 0 120.50944 21.0944A955.1104 955.1104 0 0 0 467.57376 690.8416C408.576 741.18656 351.60064 771.11808 314.496 771.11808c-8.4736 0-15.7696-1.57184-21.70368-4.66432l-1.19808-0.72192z m343.4496-168.81152a966.1952 966.1952 0 0 0 120.4992-20.81792c17.57184 95.67232 9.1136 169.10848-21.79072 188.86144l-1.34656 0.768c-6.08256 3.51232-13.73184 5.28896-22.72256 5.28896-36.98688 0-93.9008-29.90592-152.91904-80.21504a939.1104 939.1104 0 0 0 78.27968-93.88544z m-122.42944 7.02464c14.33088 0 28.81536-0.49152 42.04544-1.08544a896.9216 896.9216 0 0 1-42.53696 46.42816 821.6576 821.6576 0 0 1-42.56256-46.18752c14.41792 0.54784 28.64128 0.82944 42.42944 0.8448h0.62464z m-0.6144-258.09408c-21.03808 0-38.15424 17.11616-38.15424 38.14912 0 21.03808 17.11616 38.15424 38.15424 38.15424 21.03296 0 38.14912-17.11616 38.14912-38.15424 0-21.03296-17.11616-38.14912-38.14912-38.14912z"  horiz-adv-x="1024" />
      
      <glyph glyph-name="qukuailian" unicode="&#58888;" d="M409.782327 486.217673H0.908455V895.091545h408.873872v-408.873872zM69.054277 554.363495h272.582228V826.945723H69.054277v-272.582228zM341.636505 724.72805h272.582228v-68.145822H341.636505zM341.636505 724.72805h272.582228v-68.145822H341.636505zM205.344861 554.363495H273.490683v-272.582228h-68.145822zM750.509317 486.218733h68.144762v-204.436406H750.509317zM443.854178 213.635445h170.364555V145.490683H443.854178zM1023.091545 418.072911H546.073971v477.018634h477.017574v-177.373549h-68.145822V826.945723H614.218733v-340.72699h340.72699v70.40795h68.145822zM477.927089-127.091545h-477.018634V349.926029h477.018634v-477.017574zM69.054277-58.945723h340.72699V281.781267H69.054277v-340.72699zM693.721839 111.417772m-204.436406 0a204.436406 204.436406 0 1 1 408.872811 0 204.436406 204.436406 0 1 1-408.872811 0ZM784.582228-127.091545c-63.708489 0-123.602948 24.808149-168.651528 69.856729s-69.856729 104.944099-69.856729 168.652588 24.808149 123.602948 69.856729 168.651528 104.943039 69.856729 168.651528 69.856729 123.604008-24.808149 168.652588-69.856729 69.856729-104.943039 69.856729-168.651528-24.808149-123.604008-69.856729-168.652588-104.945159-69.856729-168.652588-69.856729z m0 408.872812c-93.938749 0-170.363495-76.424745-170.363495-170.363495s76.424745-170.364555 170.363495-170.364555 170.364555 76.425805 170.364555 170.364555-76.425805 170.363495-170.364555 170.363495zM784.582228-127.091545c-63.708489 0-123.602948 24.808149-168.651528 69.856729s-69.856729 104.944099-69.856729 168.652588 24.808149 123.602948 69.856729 168.651528 104.943039 69.856729 168.651528 69.856729 123.604008-24.808149 168.652588-69.856729 69.856729-104.943039 69.856729-168.651528-24.808149-123.604008-69.856729-168.652588-104.945159-69.856729-168.652588-69.856729z m0 408.872812c-93.938749 0-170.363495-76.424745-170.363495-170.363495s76.424745-170.364555 170.363495-170.364555 170.364555 76.425805 170.364555 170.364555-76.425805 170.363495-170.364555 170.363495z"  horiz-adv-x="1024" />
      
      <glyph glyph-name="qukuailian1" unicode="&#59280;" d="M544.928 757.536l256-157.984A66.24 66.24 0 0 0 832 543.104V222.72a66.24 66.24 0 0 0-31.072-56.448l-256-157.984c-20.256-12.48-45.6-12.48-65.856 0l-256 157.984A66.24 66.24 0 0 0 192 222.72V543.104c0 23.136 11.808 44.544 31.072 56.448l256 157.984a62.496 62.496 0 0 0 65.856 0z m220.8-258.912l-220.608-136.16v-272.288l220.64 136.16-0.032 272.288z m-507.488-6.944v-265.344l209.376-129.216v265.344L258.24 491.68z m254.336 204.416l-226.848-139.968 221.184-136.48 226.816 139.968-221.152 136.48z"  horiz-adv-x="1024" />
      
      <glyph glyph-name="qukuailian2" unicode="&#59041;" d="M1024.26 754.18c0 77.04-62.46 139.5-139.5 139.5s-139.5-62.46-139.5-139.5c0-52.26 28.74-97.8 71.27-121.69l-55.6-246.87c-1.38 0.04-2.77 0.07-4.17 0.07-38.52 0-73.39-15.61-98.63-40.85l-254.64 147a140.05 140.05 0 0 1 3.78 32.34c0 77.04-62.46 139.5-139.5 139.5s-139.5-62.46-139.5-139.5c0-51.45 27.86-96.39 69.32-120.58l-56.9-252.62c-0.4 0-0.79 0.01-1.18 0.01C62.46 151 0 88.54 0 11.5S62.46-128 139.5-128 279-65.54 279 11.5c0 51.25-27.65 96.04-68.83 120.29l56.96 252.89c0.21 0 0.43-0.01 0.64-0.01 39.99 0 76.05 16.83 101.48 43.79L622.06 282.5a139.612 139.612 0 0 1-4.79-36.34c0-77.04 62.46-139.5 139.5-139.5s139.5 62.46 139.5 139.5c0 50.15-26.47 94.12-66.2 118.7l56.27 249.82c76.31 0.86 137.92 62.98 137.92 139.5z m-884.5-809.42c-37.19 0-67.42 30.25-67.42 67.42 0 37.19 30.23 67.42 67.42 67.42 37.17 0 67.42-30.23 67.42-67.42 0-37.17-30.25-67.42-67.42-67.42z m128.27 512.67c-37.19 0-67.42 30.25-67.42 67.42 0 37.19 30.23 67.42 67.42 67.42 37.17 0 67.42-30.23 67.42-67.42 0-37.17-30.25-67.42-67.42-67.42z m489-278c-37.19 0-67.42 30.25-67.42 67.42 0 37.19 30.23 67.42 67.42 67.42 37.17 0 67.42-30.23 67.42-67.42 0-37.17-30.25-67.42-67.42-67.42z m128 642.84c37.17 0 67.42-30.23 67.42-67.42 0-37.17-30.25-67.42-67.42-67.42-37.19 0-67.42 30.25-67.42 67.42 0 37.19 30.23 67.42 67.42 67.42z"  horiz-adv-x="1024" />
      
      <glyph glyph-name="qukuai" unicode="&#59042;" d="M853.02 634.62H736.67V718.9C736.56 816.51 660.16 895.6 565.89 895.7H170.78C76.52 895.6 0.11 816.51 0 718.9v-409.03c0.11-97.61 76.51-176.71 170.79-176.8h116.34v-84.29c0.12-97.6 76.52-176.68 170.78-176.78h395.11c94.27 0.11 170.67 79.19 170.78 176.79V457.82c-0.11 97.61-76.51 176.7-170.78 176.8z m93.17-585.81c-0.06-53.26-41.74-96.41-93.18-96.47h-395.1c-51.44 0.06-93.12 43.21-93.19 96.47v84.26h201.17c94.27 0.1 170.66 79.19 170.78 176.79V426.77c0 22.18-17.37 40.17-38.8 40.17-21.43 0-38.8-17.99-38.8-40.17v-116.91c-0.06-53.26-41.75-96.4-93.18-96.46H170.78c-51.44 0.06-93.12 43.2-93.18 96.46V718.9c0.06 53.26 41.75 96.42 93.18 96.47h395.11c51.44-0.05 93.12-43.21 93.18-96.47v-84.28H457.91c-94.27-0.1-170.67-79.19-170.78-176.8v-115.39c0-22.18 17.37-40.17 38.8-40.17 21.43 0 38.8 17.99 38.8 40.17V457.82c0.07 53.25 41.75 96.4 93.19 96.46h395.11c51.43-0.06 93.11-43.21 93.18-96.47v-409.03 0.03z m0 0"  horiz-adv-x="1024" />
      
      <glyph glyph-name="qukuailian3" unicode="&#58918;" d="M288.932782 890.785839a32.050023 32.050023 0 0 0 30.225655 1.177012l2.02446-1.071081 274.008275-158.237425a32.050023 32.050023 0 0 0 15.936736-25.482299l0.082391-2.283402v-319.028966c0-10.19292-4.837517-19.714943-12.947127-25.741241l-1.800827-1.235862-151.304828-97.138759a32.050023 32.050023 0 0 0-36.369655 52.741885l1.730207 1.200552 136.568644 87.687356V686.397793L305.269701 826.050207 67.360368 686.527264v-283.412597l132.766896-87.652046a32.061793 32.061793 0 0 0 10.19292-42.607816l-1.106391-1.800828a32.061793 32.061793 0 0 0-42.607816-10.19292l-1.800828 1.106391L17.655172 359.106207a32.050023 32.050023 0 0 0-14.324229 24.59954l-0.070621 2.153931V704.888644c0 10.616644 5.249471 20.49177 13.924046 26.435678l1.906758 1.212322L288.932782 890.785839zM832.770943 890.785839a32.050023 32.050023 0 0 0 30.225655 1.177012l2.024459-1.071081 274.008276-158.237425a32.050023 32.050023 0 0 0 15.936736-25.482299l0.082391-2.283402v-319.028966c0-10.19292-4.837517-19.714943-12.947127-25.741241l-1.789057-1.235862-151.316598-97.138759a32.050023 32.050023 0 0 0-36.369655 52.741885l1.730207 1.200552 136.568644 87.687356V686.397793L849.107862 826.050207 595.367724 677.240644a32.061793 32.061793 0 0 0-42.749057 9.651494l-1.118161 1.789057a32.061793 32.061793 0 0 0 9.651494 42.725518l1.777287 1.129931L832.770943 890.785839zM552.395034 403.514851a32.061793 32.061793 0 0 0 42.607817 10.204689l1.812597-1.106391 147.149977-97.150528a32.050023 32.050023 0 0 0-33.521287-54.613334l-1.800828 1.118161-147.149977 97.138759a32.050023 32.050023 0 0 0-9.098299 44.408644zM677.170023 499.570759a32.061793 32.061793 0 0 0 42.631356 10.157609l1.789058-1.106391 147.161747-97.30354a32.050023 32.050023 0 0 0 14.30069-24.59954l0.07062-2.142161v-319.028966c0-10.616644-5.249471-20.48-13.924046-26.435678l-1.918528-1.212322L597.451034-120.337655a32.050023 32.050023 0 0 0-30.213885-1.177012l-2.024459 1.059311-274.008276 158.249195a32.050023 32.050023 0 0 0-15.936736 25.482299l-0.082391 2.271632V384.588506c0 10.19292 4.837517 19.726713 12.947127 25.741241l1.789057 1.235862 151.316598 97.150529a32.050023 32.050023 0 0 0 36.369655-52.753655l-1.730207-1.200552-136.592184-87.675586v-283.012414l241.828782-139.664184 237.909333 139.522943v283.424367l-132.778666 87.805058a32.061793 32.061793 0 0 0-10.15761 42.619586l1.094621 1.800828z"  horiz-adv-x="1165" />
      
      <glyph glyph-name="jiedianleizhongxinguanli" unicode="&#59855;" d="M1023.968002 768.008c0 70.71558-57.27642 127.992-127.992 127.992-56.572464 0-104.057496-36.989688-120.95244-87.930504-73.5954 53.372664-163.829761 85.242672-261.679645 85.242672-98.809824 0-189.876133-32.509968-263.855509-86.842572C233.041435 858.24236 185.236423 896 128.023999 896 57.308418 896 0.031998 838.72358 0.031998 768.008c0-65.211924 48.892944-118.3926 111.929004-126.3921C83.226798 582.675583 66.71583 516.695707 66.71583 446.684082c0-202.355353 134.647585-373.032685 319.212049-427.941254C384.96794 12.599213 384.008 6.455597 384.008 0.055997c0-70.71558 57.27642-127.992 127.992-127.992 70.71558 0 127.992 57.27642 127.992 127.992 0 6.143616-0.95994 12.095244-1.791888 18.046872C824.044497 72.115493 959.972002 243.368789 959.972002 446.684082c0 70.07562-16.574964 136.183489-45.373164 195.187801C976.354978 650.959315 1023.968002 703.692019 1023.968002 768.008zM246.736579 720.586963c68.987688 67.131804 162.997813 108.729204 266.607337 108.729204 101.817636 0 194.291857-40.253484 262.895569-105.337416 1.727892-4.607712 3.711768-9.023436 5.887632-13.375164L636.216236 593.298919C602.682332 622.033123 559.613024 640.015999 512 640.015999 460.611212 640.015999 414.150116 619.537279 379.720267 586.643335L237.137179 701.900131C240.784951 707.915755 244.112743 714.059371 246.736579 720.586963zM512 576.019999c70.587588 0 127.992-57.404412 127.992-127.992S582.587588 320.035998 512 320.035998C441.412412 320.035998 384.008 377.44041 384.008 448.027998S441.412412 576.019999 512 576.019999zM64.027998 768.008c0 35.261796 28.734204 63.996 63.996 63.996s63.996-28.734204 63.996-63.996c0-5.247672-1.791888-9.91938-3.007812-14.847072C184.148491 733.258171 170.965315 716.619211 152.342479 708.939691 144.854947 705.803887 136.663459 704.011999 128.023999 704.011999 92.762202 704.011999 64.027998 732.746203 64.027998 768.008zM411.334292 78.259109c-161.589901 44.7972-280.686457 192.755953-280.686457 368.424973 0 76.987188 23.03856 148.534717 62.332104 208.626961L190.804075 657.102931c1.5999 0.895944 3.327792 1.663896 4.863696 2.623836C194.707831 658.318855 193.939879 656.782951 192.979939 655.311043L341.770639 535.062559C328.331479 508.824198 320.011999 479.51403 320.011999 448.027998c0-95.03406 69.243672-173.429161 159.926005-188.724205l-9.407412-138.679333C446.788076 112.432973 426.437348 97.649897 411.334292 78.259109zM512-63.940004c-35.261796 0-63.996 28.734204-63.996 63.996 0 1.855884 0.895944 3.391788 1.023936 5.11968C451.779764 37.941629 478.530092 64.051997 512 64.051997c33.5979 0 60.47622-26.302356 63.03606-59.260296C575.164052 3.127805 575.996 1.719893 575.996 0.055997 575.996-35.2058 547.261796-63.940004 512-63.940004zM613.11368 77.683145c-18.942816 24.63846-46.333104 42.23736-78.07512 47.997l9.087432 133.559653C634.744328 274.598838 703.988001 352.993938 703.988001 448.027998c0 35.1978-10.175364 67.771764-26.686332 96.121992l146.742829 118.008624 3.263796 2.623836c1.663896-2.367852 3.391788-4.7997 4.991688-7.231548C872.425473 597.074683 895.976001 524.631211 895.976001 446.684082 895.976001 270.24711 775.791513 121.776389 613.11368 77.683145zM895.976001 704.011999c-7.487532 0-14.463096 1.91988-21.182676 4.287732-21.310668 7.551528-36.47772 25.982376-40.573464 48.63696C833.515905 760.648459 831.980001 764.104243 831.980001 768.008c0 35.261796 28.734204 63.996 63.996 63.996s63.996-28.734204 63.996-63.996S931.237798 704.011999 895.976001 704.011999z"  horiz-adv-x="1024" />
      
      <glyph glyph-name="root" unicode="&#59354;" d="M599.296 104.576c0 26.432 21.504 48 48 48s48-21.568 48-48-21.504-48-48-48S599.296 78.144 599.296 104.576zM391.296 152.576c-26.496 0-48-21.568-48-48s21.504-48 48-48 48 21.568 48 48S417.792 152.576 391.296 152.576zM245.12 315.2C236.416 327.168 222.912 335.552 206.912 335.552c-26.496 0-48-21.568-48-48s21.504-48 48-48 48 21.568 48 48c0 5.376-1.408 10.304-3.072 15.104L245.12 315.2zM564.288 681.728c0 26.432-21.504 48-48 48s-48-21.568-48-48 21.504-48 48-48S564.288 655.296 564.288 681.728zM816.512 335.552c-16 0-29.44-8.384-38.208-20.352l-6.72-12.48c-1.6-4.8-3.072-9.728-3.072-15.104 0-26.432 21.504-48 48-48s48 21.568 48 48S843.008 335.552 816.512 335.552zM960 384c0-247.36-200.576-448-448-448-247.36 0-448 200.64-448 448 0 247.424 200.64 448 448 448C759.424 832 960 631.424 960 384zM912.512 287.552c0 52.992-43.008 96-96 96-23.616 0-44.992-8.896-61.696-23.04-54.976 28.928-128.128 66.176-151.68 76.288C576.576 448.192 560.704 469.76 550.912 491.392 546.88 514.112 545.344 539.904 545.728 557.504L545.728 590.784c38.528 12.48 66.56 48.256 66.56 90.944 0 52.992-43.008 96-96 96s-96-43.008-96-96c0-42.944 28.352-78.848 67.328-91.136l0-33.152c-0.192-1.92 0.064-4.8 0-7.168C486.208 531.328 476.928 461.056 420.288 436.8c-23.552-10.112-96.64-47.36-151.616-76.288-16.768 14.208-38.144 23.04-61.76 23.04-52.992 0-96-43.008-96-96s43.008-96 96-96 96 43.008 96 96c0 11.84-2.432 22.976-6.336 33.408C348.608 348.224 414.72 381.952 437.568 391.936 426.88 373.312 416.448 354.688 410.24 342.784c-27.648-53.376-25.216-121.472-25.088-123.392l0-19.52c-50.112-3.264-89.856-44.48-89.856-95.36 0-52.992 43.008-96 96-96s96 43.008 96 96c0 37.952-22.208 70.4-54.144 86.016l0 29.888c-0.704 16 1.536 65.344 19.712 100.224C467.072 348.032 506.304 415.232 513.92 426.816c1.664 2.56 2.944 5.76 4.352 8.64 1.536-3.008 2.88-6.272 4.608-8.896C530.56 415.232 570.304 348.16 584.768 320.704c21.888-41.856 19.904-99.712 19.84-101.248l0-29.376c-31.424-15.744-53.248-47.936-53.248-85.504 0-52.992 43.008-96 96-96s96 43.008 96 96c0 51.2-40.256 92.672-90.752 95.488l0 18.368c0.128 2.88 2.688 70.976-25.344 124.544C622.208 352.64 613.824 367.424 604.8 383.04c30.464-14.656 80.512-40.32 121.984-62.08-3.904-10.432-6.336-21.632-6.336-33.408 0-52.992 43.008-96 96-96S912.512 234.56 912.512 287.552z"  horiz-adv-x="1024" />
      
      <glyph glyph-name="jiedianguanli4" unicode="&#59036;" d="M512 597.333333m-85.333333 0a85.333333 85.333333 0 1 1 170.666666 0 85.333333 85.333333 0 1 1-170.666666 0ZM637.952 896a64 64 0 0 0 56.32-33.536l127.061333-234.666667a64 64 0 0 0 0-60.928l-127.104-234.666666a64 64 0 0 0-56.277333-33.536H554.666667v-90.709334c73.642667-18.986667 128-85.76 128-165.290666h256a42.666667 42.666667 0 0 0 0-85.333334l-278.869334-0.042666A170.581333 170.581333 0 0 0 512-128a170.581333 170.581333 0 0 0-147.797333 85.290667L85.333333-42.666667a42.666667 42.666667 0 0 0 0 85.333334h256a170.752 170.752 0 0 0 128 165.290666V298.666667H386.048a64 64 0 0 0-52.992 28.074666l-3.285333 5.461334-127.146667 234.666666a64 64 0 0 0 0 60.928l127.146667 234.666667A64 64 0 0 0 386.048 896zM512 128a85.333333 85.333333 0 1 1 0-170.666667 85.333333 85.333333 0 0 1 0 170.666667z m113.28 682.666667H398.762667L283.221333 597.333333l115.584-213.333333h226.432l115.584 213.333333-115.541333 213.333334z"  horiz-adv-x="1024" />
      
      <glyph glyph-name="copynode" unicode="&#59156;" d="M704 832 256 832C147.2 832 64 748.8 64 640s83.2-192 192-192l448 0c108.8 0 192 83.2 192 192S806.4 832 704 832L704 832zM768 320c70.4 0 128-57.6 128-128s-57.6-128-128-128L320 64c-70.4 0-128 57.6-128 128s57.6 128 128 128L768 320M768 384 320 384c-108.8 0-192-83.2-192-192s83.2-192 192-192l448 0c108.8 0 192 83.2 192 192S870.4 384 768 384L768 384z"  horiz-adv-x="1024" />
      
      <glyph glyph-name="dodechild" unicode="&#59157;" d="M727.296 448c-113.28 0-205.952-84.416-220.928-193.536L256 254.464 256 640l314.56 0c14.848-73.024 79.36-128 156.8-128 88.384 0 160 71.616 160 160S815.68 832 727.296 832c-77.44 0-141.952-54.976-156.8-128L96 704C78.336 704 64 689.664 64 672S78.336 640 96 640L192 640l0-417.536c0-17.664 14.336-32 32-32l282.688 0C523.008 82.816 615.104 0 727.296 0c123.712 0 224 100.288 224 224S851.008 448 727.296 448zM727.296 768c52.928 0 96-43.072 96-96S780.224 576 727.296 576s-96 43.072-96 96S674.368 768 727.296 768z"  horiz-adv-x="1024" />
      
      <glyph glyph-name="dodeparent" unicode="&#59158;" d="M727.296 254.848c-77.568 0-142.208-55.168-156.8-128.448L256 126.4 256 576l250.56 0c15.68-108.416 108.032-192 220.8-192 123.712 0 224 100.288 224 224S851.008 832 727.296 832c-112.768 0-205.12-83.584-220.8-192L96 640C78.336 640 64 625.664 64 608S78.336 576 96 576L192 576l0-481.536c0-17.664 14.336-32 32-32l346.624 0c14.976-72.832 79.424-127.552 156.672-127.552 88.384 0 160 71.616 160 160S815.68 254.848 727.296 254.848zM727.296-1.152c-52.928 0-96 43.072-96 96s43.072 96 96 96 96-43.072 96-96S780.224-1.152 727.296-1.152z"  horiz-adv-x="1024" />
      
      <glyph glyph-name="jiedianguanli" unicode="&#60260;" d="M512 384m-192 0a192 192 0 1 1 384 0 192 192 0 1 1-384 0ZM960 384c0 53.6-9.408 105.92-27.616 155.2a32 32 0 0 1-60.032-22.144c15.584-42.24 23.648-87.072 23.648-133.056 0-22.048-2.272-43.552-5.856-64.576A63.808 63.808 0 0 1 832 256c0-18.88 8.32-35.68 21.344-47.392C789.6 84.832 660.832 0 512 0 299.936 0 128 171.936 128 384c0 22.048 2.272 43.552 5.856 64.576A63.808 63.808 0 0 1 192 512c0 18.88-8.32 35.68-21.344 47.392C234.4 683.168 363.168 768 512 768c33.312 0 65.824-4.736 97.312-12.96A64.064 64.064 0 0 1 736 768a64 64 0 0 1-64 64c-16.256 0-30.944-6.272-42.24-16.256A448.864 448.864 0 0 1 512 832C331.712 832 176.736 725.28 105.664 571.776A63.872 63.872 0 0 1 64 512c0-12.576 3.744-24.224 10.016-34.112A449.344 449.344 0 0 1 64 384c0-247.424 200.576-448 448-448 180.288 0 335.264 106.72 406.336 260.224A63.872 63.872 0 0 1 960 256c0 12.576-3.744 24.224-10.016 34.112 6.464 30.304 10.016 61.664 10.016 93.888z"  horiz-adv-x="1024" />
      
      <glyph glyph-name="jiedian" unicode="&#58954;" d="M512 887.583562l-436.252055-252.493151v-503.583562l436.252055-251.090411 436.252055 251.090411V635.090411L512 887.583562z m328.241096-270.728767L512 424.679452 183.758904 616.854795 512 806.224658l328.241096-189.369863z m-694.356164-58.915069L476.931507 364.361644v-381.545206L145.884932 172.186301V557.939726zM547.068493-18.586301V364.361644l331.046575 193.578082v-384.350685L547.068493-18.586301z"  horiz-adv-x="1024" />
      
      <glyph glyph-name="jiedian1" unicode="&#59033;" d="M882.1914 151.150079c-60.501005 0-112.097749-38.645092-131.425292-92.560342H244.912146c-80.468136 0-145.955927 62.61964-145.955926 139.570043 0 77.000371 65.487791 139.570043 145.955926 139.570043h136.312143c19.497433-53.585462 70.934281-91.950735 131.205434-91.950735 60.241173 0 111.688014 38.375266 131.205434 91.950735h136.452052C914.210763 337.719829 1023.340425 442.07257 1023.340425 570.339898S914.210763 802.959967 780.077216 802.959967H273.093982c-19.197627 54.165089-70.944274 93.040033-131.595182 93.040033C64.508422 896 1.928757 833.430328 1.928757 756.439951c0-76.950403 62.579665-139.570043 139.570043-139.570043 60.640915 0 112.377569 38.894931 131.585189 93.040033h506.993227c80.468136 0 145.955927-62.61964 145.955927-139.570043 0-77.000371-65.487791-139.570043-145.955927-139.570043H644.414655c-18.887826 54.734722-70.924287 94.139324-131.974938 94.139325-61.090625 0-113.097105-39.394609-131.974938-94.139325H244.912146c-134.133547 0-243.263209-104.352741-243.263209-232.620069 0-128.267328 109.129663-232.620069 243.263209-232.620069h505.524174c19.057717-54.394941 70.9043-93.529717 131.75508-93.529717 76.950403 0 139.570043 62.61964 139.570043 139.570043 0.009994 77.000371-62.61964 139.580036-139.570043 139.580036zM141.428845 688.963442c-37.166045 0-67.376574 30.230515-67.376574 67.376573 0 37.166045 30.210528 67.376574 67.376574 67.376574 37.146058 0 67.376574-30.210528 67.376573-67.376574 0-37.146058-30.230515-67.376574-67.376573-67.376573z m371.000878-236.257725c37.146058 0 67.376574-30.210528 67.376574-67.376574 0-37.146058-30.230515-67.376574-67.376574-67.376573-37.166045 0-67.376574 30.230515-67.376574 67.376573 0.009994 37.176039 30.210528 67.376574 67.376574 67.376574z m369.761677-508.502254c-37.166045 0-67.376574 30.230515-67.376574 67.376573 0 37.166045 30.210528 67.376574 67.376574 67.376574 37.146058 0 67.376574-30.210528 67.376574-67.376574 0-37.146058-30.230515-67.376574-67.376574-67.376573z"  horiz-adv-x="1024" />
      
      <glyph glyph-name="node" unicode="&#58900;" d="M544 192h64a32 32 0 0 0 32-32v-192a32 32 0 0 0-32-32h-192a32 32 0 0 0-32 32v192a32 32 0 0 0 32 32h64V320H315.968a128.64 128.64 0 0 0-113.216-95.552L192 224A128 128 0 1 0 315.968 384H480V515.2a160.128 160.128 0 0 0-127.68 146.304L352 672a160 160 0 0 0 320 0 160.128 160.128 0 0 0-128-156.672V384H832a32 32 0 0 0 31.488-26.24l0.512-5.76V192h64a32 32 0 0 0 31.488-26.24l0.512-5.76v-192a32 32 0 0 0-32-32h-192a32 32 0 0 0-32 32v192a32 32 0 0 0 32 32h64V320h-256v-128z m352-64h-128v-128h128v128z m-320 0H448v-128h128v128zM192 416a64 64 0 0 1-64-64c0-35.392 28.608-64 62.464-64l7.744 0.32A64 64 0 0 1 192 416zM512 768a96 96 0 0 1-1.152-192l8.32 0.256A96.064 96.064 0 0 1 512 768z"  horiz-adv-x="1024" />
      
      <glyph glyph-name="sisternode" unicode="&#60376;" d="M672 464c-120.3 0-219.9-88.5-237.3-204H320c-15.5 0-28 12.5-28 28V652h291c14.2-35.2 48.7-60 89-60 53 0 96 43 96 96s-43 96-96 96c-40.3 0-74.8-24.8-89-60H112v-72h108v-364c0-55.2 44.8-100 100-100h114.7c17.4-115.5 117-204 237.3-204 132.5 0 240 107.5 240 240S804.5 464 672 464z m128-266c0-4.4-3.6-8-8-8h-86v-86c0-4.4-3.6-8-8-8h-52c-4.4 0-8 3.6-8 8v86h-86c-4.4 0-8 3.6-8 8v52c0 4.4 3.6 8 8 8h86v86c0 4.4 3.6 8 8 8h52c4.4 0 8-3.6 8-8v-86h86c4.4 0 8-3.6 8-8v-52z"  horiz-adv-x="1024" />
      
      <glyph glyph-name="jiedianguanli1" unicode="&#58901;" d="M827.72 341.55H672l-65.78 98.31L695.56 593l-96.37 165.2H404.62L307.79 593l94.15-160.63-61.61-92.22H196.28L99 175l97.28-165.2H390.4l81.76 139.5h80.49l81-138.13h194.07L925 176.35z m-434.94-5.45l61.28 91.72h104.86L625.64 328l-77.83-132.8h-72.42z"  horiz-adv-x="1024" />
      
      <glyph glyph-name="jiedianguanli_1" unicode="&#58902;" d="M845 348.55h65.54A400.6 400.6 0 0 1 712.7 694.23l-33.22-56.49C781.6 577.68 845 466.87 845 348.55zM347.72 642.08L316 699.42a401.21 401.21 0 0 1-207-350.87h65.54a335.66 335.66 0 0 0 173.18 293.53zM509.79 13.32a334 334 0 0 0-181.3 53.2L293 11.43a401.13 401.13 0 0 1 419.1-8.91L679 59.07a334.94 334.94 0 0 0-169.21-45.75zM821.51 270.9A108.64 108.64 0 0 1 752.2 246l-67.31 38.86a185.44 185.44 0 0 1 11.22 63.7c0 91.55-66.38 167.9-153.54 183.42V607a109.14 109.14 0 1 1-65.57 0v-75c-87.16-15.53-153.54-91.87-153.54-183.42a185.46 185.46 0 0 1 11.22-63.7L267.39 246a109.17 109.17 0 1 1 35.81-55l64.47 37.23a186 186 0 0 1 284.23 0L716.38 191a109.13 109.13 0 1 1 105.13 79.9zM198.07 118.15a43.6 43.6 0 1 0 43.61 43.61 43.66 43.66 0 0 0-43.61-43.61z m311.72 636.53a43.61 43.61 0 1 0-43.61-43.61 43.65 43.65 0 0 0 43.61 43.61z m0-526.91a120.78 120.78 0 1 0 120.78 120.78 120.91 120.91 0 0 0-120.78-120.77z m311.72-109.62a43.6 43.6 0 1 0 43.61 43.61 43.65 43.65 0 0 0-43.61-43.61z"  horiz-adv-x="1024" />
      
      <glyph glyph-name="areachart" unicode="&#58883;" d="M923.008-64H99.008q-15.008 0-25.504 10.496t-10.496 25.504V796.992q0 15.008 10.496 25.504t25.504 10.496 25.504-10.496 10.496-25.504V8h788q15.008 0 25.504-10.496t10.496-25.504-10.496-25.504-25.504-10.496zM192 96l116.992 208.992q4 7.008 12 9.504t16-0.512L448 261.984l118.016 171.008q11.008 15.008 27.008 7.008L703.04 384l160 251.008q7.008 11.008 19.488 7.488t12.512-16.512v-520q0-16-11.488-27.488t-27.488-11.488H210.048q-11.008 0-16.992 9.504T192.064 96z"  horiz-adv-x="1024" />
      
      <glyph glyph-name="barchart" unicode="&#58886;" d="M923.008-64H99.008q-15.008 0-25.504 10.496t-10.496 25.504V796q0 15.008 10.496 25.504T99.008 832t25.504-10.496 10.496-25.504V8h788q15.008 0 25.504-10.496t10.496-25.504-10.496-25.504-25.504-10.496zM264 523.008q-28.992-0.992-50.016-22.016t-22.016-50.016q0-23.008 11.488-40.992t30.496-28v-284.992q0-12.992 9.504-22.496t22.496-9.504q12.992 0 22.496 9.504t9.504 22.496v284.992q19.008 8.992 30.496 27.008t11.488 40q0 31.008-22.496 52.992t-53.504 20.992z m278.016 117.984Q512 640 491.008 618.976t-20.992-50.016q-0.992-23.008 10.496-40.992t31.488-28V96.96q0-12.992 8.992-22.496t23.008-9.504q12.992 0 22.496 9.504T576 96.96V499.968q18.016 8.992 30.016 27.008t12 40q0 31.008-22.496 52.992t-53.504 20.992z m352.992-203.008q0 31.008-22.496 52.992t-53.504 20.992q-28.992-0.992-50.016-22.016t-22.016-50.016q0-23.008 11.488-40.992t30.496-28v-274.016q0-12.992 9.504-22.496t22.496-9.504q12.992 0 22.496 9.504t9.504 22.496v274.016q19.008 8.992 30.496 27.008t11.488 40z"  horiz-adv-x="1024" />
      
      <glyph glyph-name="barschart" unicode="&#58887;" d="M203.008 729.984v-696q0-15.008-10.496-25.504t-25.504-10.496q-15.008 0-25.504 10.496t-10.496 25.504V729.984q0 15.008 10.496 25.504t25.504 10.496q15.008 0 25.504-10.496t10.496-25.504zM167.008 69.984h694.016q15.008 0 25.504-10.496t10.496-25.504q0-15.008-10.496-25.504t-25.504-10.496H167.008q-15.008 0-25.504 10.496t-10.496 25.504q0 15.008 10.496 25.504t25.504 10.496z m227.008 467.008v-371.008q0-15.008-10.496-25.504t-25.504-10.496q-15.008 0-25.504 10.496t-10.496 25.504V536.992q0 15.008 10.496 25.504t25.504 10.496q15.008 0 25.504-10.496t10.496-25.504z m382.976 130.016v-500.992q0-15.008-10.496-25.504t-25.504-10.496q-15.008 0-25.504 10.496t-10.496 25.504V667.008q0 15.008 10.496 25.504t25.504 10.496q15.008 0 25.504-10.496t10.496-25.504z m-192-256v-244.992q0-15.008-10.496-25.504t-25.504-10.496q-15.008 0-25.504 10.496t-10.496 25.504v244.992q0 15.008 10.496 25.504t25.504 10.496q14.016 0 24.992-10.496t11.008-25.504z"  horiz-adv-x="1024" />
      
      <glyph glyph-name="dotchart" unicode="&#58904;" d="M923.008 8H135.008V796.992q0 15.008-10.496 25.504t-25.504 10.496-25.504-10.496-10.496-25.504v-824.992q0-15.008 10.496-25.504t25.504-10.496h824q15.008 0 25.504 10.496t10.496 25.504-10.496 25.504-25.504 10.496zM252.992 259.488q0 27.488 19.008 46.496t46.496 19.008 47.008-19.008 19.488-46.496-19.488-47.008-47.008-19.488T272 212.48t-19.008 47.008zM512 299.008q0 35.008 24.992 60T597.504 384t60.512-24.992 24.992-60-24.992-60-60.512-24.992-60.512 24.992T512 299.008z m51.008 214.976q0 24.992 17.504 42.496t42.496 17.504 42.496-17.504 17.504-42.496-17.504-42.496-42.496-17.504-42.496 17.504-17.504 42.496z m241.984 143.52q0 18.496 12.992 32t32 13.504 32.512-13.504 13.504-32-13.504-32-32.512-13.504-32 13.504-12.992 32z m25.024-191.52q0 14.016 9.504 23.488t23.488 9.504 23.488-9.504 9.504-23.488-9.504-23.488-23.488-9.504-23.488 9.504-9.504 23.488z"  horiz-adv-x="1024" />
      
      <glyph glyph-name="linechart" unicode="&#58929;" d="M923.008-64H99.008q-15.008 0-25.504 10.496t-10.496 25.504V796.992q0 15.008 10.496 25.504t25.504 10.496 25.504-10.496 10.496-25.504V8h788q15.008 0 25.504-10.496t10.496-25.504-10.496-25.504-25.504-10.496z m-538.016 216.992q-19.008 0-30.016 16l-156.992 250.016q-8 12.992-4.992 27.488t15.488 22.496 27.008 4.992 22.496-15.008l112-182.016L416 453.952q4 16 19.008 23.008l182.016 88q12.992 6.016 26.016 2.496t20.992-15.488l91.008-148 134.016 403.008q4.992 14.016 18.016 20.992t27.008 2.016 20.992-18.016 2.016-27.008l-158.016-476.992q-7.008-22.016-30.016-24.512t-35.008 16.512l-115.008 186.016-136.992-66.016-62.016-240q-6.016-23.008-28.992-26.016-3.008-0.992-6.016-0.992z"  horiz-adv-x="1024" />
      
      <glyph glyph-name="piechart" unicode="&#58944;" d="M466.920452-127.808036q94.990189 0 179.966257 35.993251t149.987877 100.973068l-329.954134 327.938511V802.001625q-94.990189 0-181.469974-36.505156T136.486409 666.50703t-99.46935-148.484159-36.985065-180.478161 36.985065-180.95807 99.46935-148.484159 148.964069-98.98944 181.469974-36.985065z m63.988003 531.900269H1023.808036q0 99.981254-39.000687 190.972192T879.835031 752.026995t-157.474474 104.972318T530.908455 896v-491.907767z m25.979129-64.979817l331.937761-326.946697q63.988002 63.988002 99.46935 148.484159t35.481347 178.462538H556.85559z"  horiz-adv-x="1024" />
      
      <glyph glyph-name="suo" unicode="&#58897;" d="M802.032941-87.04H222.027294c-77.884235 0-143.119059 58.127059-158.418823 135.107765a29.033412 29.033412 0 0 0 28.672 33.490823c2.770824 1.084235 5.601882 1.084235 8.31247 1.084236a30.117647 30.117647 0 0 0 29.57553-24.636236c9.035294-45.477647 46.983529-79.088941 91.979294-79.088941h579.945411c52.826353 0 95.894588 46.501647 95.894589 103.725177v319.247058c0 57.223529-43.068235 103.725176-95.894589 103.725177h-65.174588v108.423529c0 133.240471-86.618353 216.064-226.063059 216.064-137.938824 0-223.593412-82.823529-223.593411-216.124235V505.675294H222.027294c-52.886588 0-95.954824-46.501647-95.954823-103.725176v-192.813177a30.117647 30.117647 0 0 0-30.117647-30.117647H90.352941a30.117647 30.117647 0 0 0-30.117647 30.117647v192.752941c0 93.244235 72.161882 169.200941 161.129412 169.622589v42.465882C221.364706 782.637176 337.679059 896 510.795294 896c174.561882 0 291.900235-113.362824 291.900235-282.021647v-42.465882c88.907294-0.361412 161.069176-76.318118 161.069177-169.622589v-319.247058c0.060235-93.545412-72.523294-169.622588-161.731765-169.622589zM470.076235 362.134588a30.117647 30.117647 0 0 1-30.117647-30.117647v-87.762823c0-10.962824 8.914824-19.877647 19.877647-19.877647h0.060236a19.877647 19.877647 0 0 0 19.877647-19.877647v-83.606589a30.117647 30.117647 0 0 1 30.117647-30.117647h2.770823a30.117647 30.117647 0 0 1 30.117647 30.117647v83.546353c0 11.023059 8.914824 19.937882 19.937883 19.937883a19.937882 19.937882 0 0 1 19.998117 19.937882V332.016941a30.117647 30.117647 0 0 1-30.117647 30.117647h-82.522353zM254.313412 571.331765h536.937412v-65.295059H254.313412V571.392z"  horiz-adv-x="1024" />
      
      <glyph glyph-name="yuechi1" unicode="&#59155;" d="M532.699363 387.648634l-301.698893-301.698893-60.339779 60.339779L472.359585 447.988413zM351.741706 85.962852l-60.339779-60.339779-120.679557 120.679557L231.062149 206.642409zM442.230869 176.522024l-60.339779-60.339779-120.679557 120.679557L321.551312 297.201581zM597.333333 725.333333a213.333333 213.333333 0 1 0 0-426.666666 213.333333 213.333333 0 0 0 0 426.666666z m0-85.333333a128 128 0 1 1 0-256 128 128 0 0 1 0 256z"  horiz-adv-x="1024" />
      
      <glyph glyph-name="suoding" unicode="&#58927;" d="M853.333333 435.2h-72.533333V674.133333A136.533333 136.533333 0 0 1 644.266667 810.666667H379.733333a136.533333 136.533333 0 0 1-136.533333-136.533334v-238.933333H170.666667a34.133333 34.133333 0 0 1-34.133334-34.133333v-409.6a34.133333 34.133333 0 0 1 34.133334-34.133334h682.666666a34.133333 34.133333 0 0 1 34.133334 34.133334v409.6a34.133333 34.133333 0 0 1-34.133334 34.133333zM320 674.133333a59.733333 59.733333 0 0 0 59.733333 59.733334h264.533334a59.733333 59.733333 0 0 0 59.733333-59.733334v-238.933333h-384V674.133333z m490.666667-640H213.333333v324.266667h597.333334v-324.266667zM482.133333 182.4v-56.533333c0-4.693333 3.84-8.533333 8.533334-8.533334h42.666666a8.533333 8.533333 0 0 1 8.533334 8.533334v56.533333a51.2 51.2 0 1 1-59.733334 0z"  horiz-adv-x="1024" />
      
      <glyph glyph-name="jiesuo" unicode="&#58913;" d="M699.986092-127.996933H90.440968c-22.839719-0.194381-44.685937 8.844317-61.467462 25.366667C10.744927-84.693258 0.183582-59.197004 0-32.70725V433.514589c0.20518 26.511352 10.798922 51.986008 29.005903 69.912217a86.391372 86.391372 0 0 0 60.797928 25.301874h610.149864a86.391372 86.391372 0 0 0 60.88432-25.399064c18.206982-17.937009 28.746729-43.433262 28.919512-69.933816v-466.167843c-0.183582-26.489754-10.744927-51.96441-28.951909-69.89062a86.391372 86.391372 0 0 0-60.819526-25.33427zM90.181794-64.596465H699.986092a23.347268 23.347268 0 0 1 16.349567 7.127288c6.274173 6.187782 9.935008 15.312871 10.021399 25.053498V433.136626c0 9.589442-3.714829 18.779325-10.021399 24.999504a23.379665 23.379665 0 0 1-16.381964 7.148886H89.803831a23.347268 23.347268 0 0 1-16.306371-7.084093c-6.295771-6.176983-9.956606-15.32367-10.053796-25.075096v-465.433517c0.086391-9.773024 3.747226-18.91971 10.053796-25.118291a23.358067 23.358067 0 0 1 16.392763-7.148886h0.334766zM1066.998239 501.763772h-63.400469V651.6852c0 99.738839-81.143096 180.881935-180.881935 180.881935s-180.881935-81.143096-180.881935-180.881935v-149.921428h-63.400468V651.6852C578.433432 786.380148 688.020887 896 822.715835 896s244.282403-109.619852 244.282404-244.3148zM394.203831 258.604457m-80.063204 0a80.063204 80.063204 0 1 1 160.126408 0 80.063204 80.063204 0 1 1-160.126408 0ZM353.923854 198.432866H431.95686v-99.350078a19.945608 19.945608 0 0 0-19.945608-19.945608h-38.14179a19.945608 19.945608 0 0 0-19.945608 19.870016v99.350078z"  horiz-adv-x="1067" />
      
      <glyph glyph-name="yuechi2" unicode="&#59251;" d="M945.55 606.42l-82.19 82.18 44.59 44.59c18.11 18.1 18.11 47.46 0 65.56-18.11 18.11-47.45 18.11-65.56 0L480.31 436.67c-44.02 30.85-96.33 47.48-151.21 47.48-70.58 0-136.93-27.49-186.84-77.41-49.91-49.9-77.39-116.25-77.39-186.83 0-70.59 27.48-136.94 77.39-186.84 49.91-49.91 116.26-77.41 186.84-77.41s136.93 27.49 186.84 77.41c49.91 49.9 77.39 116.25 77.39 186.84 0 54.88-16.62 107.19-47.47 151.21l123.03 123.03 82.19-82.18c9.05-9.05 20.92-13.58 32.78-13.58s23.72 4.53 32.78 13.58l128.89 128.89a46.378 46.378 0 0 1 13.58 32.78 46.275 46.275 0 0 1-13.56 32.78zM450.39 98.63c-66.87-66.87-175.7-66.87-242.57 0-32.39 32.39-50.23 75.47-50.23 121.29 0 45.8 17.84 88.88 50.23 121.27 33.43 33.43 77.37 50.15 121.29 50.15 43.91 0 87.85-16.72 121.29-50.15 32.39-32.39 50.23-75.47 50.23-121.27 0-45.82-17.84-88.9-50.24-121.29z m333.49 411.68l-49.41 49.41 63.34 63.34 49.41-49.41-63.34-63.34z"  horiz-adv-x="1024" />
      
      <glyph glyph-name="icon_jiesuo" unicode="&#58959;" d="M512 298.666667c-35.413333 0-64.426667-29.013333-64.426667-64.426667 0-26.453333 16.213333-49.493333 39.253334-59.306667V85.333333c0-14.08 11.52-25.6 25.6-25.6s25.6 11.52 25.6 25.6v90.026667c22.613333 9.813333 38.826667 32.426667 38.826666 58.88A65.28 65.28 0 0 1 512 298.666667zM792.746667 426.666667h-4.693334l11.093334 40.533333c20.906667 78.08 10.24 159.146667-30.293334 229.12a298.965333 298.965333 0 0 1-183.466666 140.8 297.856 297.856 0 0 1-228.693334-30.293333 298.965333 298.965333 0 0 1-140.8-183.466667c-5.973333-22.613333 7.68-46.08 30.293334-52.053333a42.24 42.24 0 0 1 52.053333 30.293333c14.933333 55.893333 50.773333 102.4 100.693333 131.413333 49.92 29.013333 108.373333 36.693333 164.266667 21.76s102.4-50.773333 131.413333-100.693333c29.013333-49.92 36.693333-108.373333 21.76-164.266667L699.733333 426.666667H231.253333C150.613333 426.666667 85.333333 361.386667 85.333333 280.746667v-220.586667C85.333333-20.053333 150.613333-85.333333 231.253333-85.333333h561.92c80.213333 0 145.92 65.28 145.92 145.92v220.586666A146.389333 146.389333 0 0 1 792.746667 426.666667zM853.333333 60.586667c0-33.28-27.306667-60.586667-60.586666-60.586667H231.253333C197.973333 0 170.666667 27.306667 170.666667 60.586667v220.586666c0 32.853333 27.306667 60.16 60.586666 60.16h561.92c33.28 0 60.586667-27.306667 60.586667-60.586666v-220.16z"  horiz-adv-x="1024" />
      
      <glyph glyph-name="zhihang1" unicode="&#58906;" d="M512 822.857143A438.857143 438.857143 0 1 0 73.142857 384 438.857143 438.857143 0 0 0 512 822.857143m0 73.142857a512 512 0 1 1 512-512A512 512 0 0 1 512 896zM405.577143 523.154286L646.582857 384l-241.005714-139.154286V523.154286M397.165714 603.4285709999999a64.731429 64.731429 0 0 1-64.731428-64.731428v-308.662857a64.365714 64.365714 0 0 1 96.914285-55.954286l266.605715 153.965714a64.731429 64.731429 0 0 1 0 111.908572l-266.605715 153.965714a64.182857 64.182857 0 0 1-32.182857 9.508571z"  horiz-adv-x="1024" />
      
      <glyph glyph-name="zhihang" unicode="&#58953;" d="M512 874C241.38 874 22 654.62 22 384s219.38-490 490-490 490 219.38 490 490S782.62 874 512 874z m166.21-533.29h-0.02l-240.7-160.47a52.004 52.004 0 0 0-53.45-2.59 51.972 51.972 0 0 0-27.43 45.94v320.8a51.994 51.994 0 0 0 27.42 45.96 52 52 0 0 0 53.46-2.58l240.72-160.48A52.016 52.016 0 0 0 701.4 384a52.04 52.04 0 0 0-23.19-43.29z"  horiz-adv-x="1024" />
      
      <glyph glyph-name="WIFI" unicode="&#58943;" d="M512 128.9728m-71.40864 0a71.40864 71.40864 0 1 1 142.81728 0 71.40864 71.40864 0 1 1-142.81728 0ZM512 537.01632c-122.9056 0-234.51136-48.31744-316.9024-126.976-14.57664-13.91616-15.08864-37.00736-0.83456-51.25632A36.22912 36.22912 0 0 1 219.89888 348.16a35.0208 35.0208 0 0 1 24.33536 9.71264C313.87136 424.54528 408.20736 465.60768 512 465.60768s198.12864-41.0624 267.76576-107.73504a35.01056 35.01056 0 0 1 24.33536-9.71264c9.28768 0 18.59584 3.584 25.63584 10.624 14.24896 14.24896 13.74208 37.34016-0.83456 51.25632-82.39104 78.65856-193.9968 126.976-316.9024 126.976zM512 363.5968c-74.97216 0-143.17568-28.89728-194.12992-76.14464-14.82752-13.7472-15.1296-37.14048-0.82944-51.44064a35.77344 35.77344 0 0 1 25.33888-10.50112 35.24608 35.24608 0 0 1 24.07424 9.43104c38.23104 35.49696 89.38496 57.24672 145.54624 57.24672 56.16128 0 107.3152-21.74976 145.54624-57.24672a35.24608 35.24608 0 0 1 24.07424-9.43104 35.7632 35.7632 0 0 1 25.33888 10.50112c14.30016 14.30016 13.99296 37.69344-0.82944 51.44064-50.95424 47.25248-119.15776 76.14464-194.12992 76.14464zM512.0768 710.43584c-169.75872 0-323.81952-66.94912-437.42208-175.7952a35.70176 35.70176 0 0 1 22.48704-63.41632c10.26048 0 19.47648 4.352 25.98912 11.27424l0.09728-0.09728C228.25984 583.4752 365.89056 639.0272 512.0768 639.0272c146.41664 0 284.24192-55.74656 389.32992-157.12768A35.69664 35.69664 0 0 1 962.56 506.92096a35.5584 35.5584 0 0 1-10.0352 24.7808l0.03072 0.03072c-0.14336 0.14336-0.29696 0.27648-0.44544 0.41984l-0.0512 0.04608c-113.83808 110.30528-268.9536 178.23744-439.98208 178.23744z"  horiz-adv-x="1024" />
      
      <glyph glyph-name="Close" unicode="&#59154;" d="M1014.443 562.403c10.923 16.384 7.282 38.229-7.282 50.973-16.384 12.743-38.229 9.102-50.973-7.282-1.821-1.821-203.89-240.299-444.189-240.299-233.017 0-444.189 240.299-446.009 242.119-12.743 14.563-36.409 16.384-50.973 3.641-14.563-12.743-16.384-36.409-3.641-50.973 3.641-5.461 47.331-54.613 116.509-109.227l-92.843-96.483c-14.563-14.563-12.743-38.229 1.821-50.973 3.641-7.282 12.743-10.923 21.845-10.923 9.102 0 18.205 3.641 25.486 10.923l100.125 103.765c47.331-32.768 103.765-63.715 165.661-85.561l-38.229-129.251c-5.461-20.025 5.461-40.050 25.486-45.511 3.641 0 7.282 0 10.923 0 16.384 0 30.947 10.923 34.589 27.307l38.229 129.251c29.127-5.461 60.075-9.102 91.022-9.102s61.895 3.641 91.022 9.102l38.229-127.431c3.641-16.384 20.025-27.307 34.589-27.307 3.641 0 7.282 0 9.102 1.821 20.025 5.461 30.947 25.486 25.486 45.511l-38.229 127.431c61.895 21.845 118.329 52.793 165.661 85.561l98.304-101.945c7.282-7.282 16.384-10.923 25.486-10.923s18.205 3.641 25.486 10.923c14.563 14.563 14.563 36.409 1.821 50.973l-92.843 96.483c74.638 54.613 118.329 107.406 118.329 107.406z"  horiz-adv-x="1024" />
      
      <glyph glyph-name="logout" unicode="&#59276;" d="M868 164h-70.3c-4.8 0-9.3-2.1-12.3-5.8-7-8.5-14.5-16.7-22.4-24.5-32.6-32.5-70.5-58.1-112.7-75.9-43.6-18.4-90-27.8-137.9-27.8-47.9 0-94.3 9.4-137.9 27.8-42.2 17.8-80.1 43.4-112.7 75.9-32.6 32.5-58.1 70.4-76 112.5C167.3 289.8 158 336.1 158 384s9.4 94.2 27.8 137.8c17.8 42.1 43.4 80 76 112.5s70.5 58.1 112.7 75.9c43.6 18.4 90 27.8 137.9 27.8 47.9 0 94.3-9.3 137.9-27.8 42.2-17.8 80.1-43.4 112.7-75.9 7.9-7.9 15.3-16.1 22.4-24.5 3-3.7 7.6-5.8 12.3-5.8H868c6.3 0 10.2 7 6.7 12.3C798 735.5 663.8 814.4 511.3 814 271.7 813.4 79.6 618.9 82 379.6 84.4 144.1 276.2-46 512.4-46c152.1 0 285.7 78.8 362.3 197.7 3.4 5.3-0.4 12.3-6.7 12.3zM956.9 390.3L815 502.3c-5.3 4.2-13 0.4-13-6.3v-76H488c-4.4 0-8-3.6-8-8v-56c0-4.4 3.6-8 8-8h314v-76c0-6.7 7.8-10.5 13-6.3l141.9 112c4.1 3.2 4.1 9.4 0 12.6z"  horiz-adv-x="1024" />
      
      <glyph glyph-name="login" unicode="&#59631;" d="M521.7 814c-152.5 0.4-286.7-78.5-363.4-197.7-3.4-5.3 0.4-12.3 6.7-12.3h70.3c4.8 0 9.3 2.1 12.3 5.8 7 8.5 14.5 16.7 22.4 24.5 32.6 32.5 70.5 58.1 112.7 75.9 43.6 18.4 90 27.8 137.9 27.8 47.9 0 94.3-9.3 137.9-27.8 42.2-17.8 80.1-43.4 112.7-75.9 32.6-32.5 58.1-70.4 76-112.5C865.7 478.2 875 431.9 875 384c0-47.9-9.4-94.2-27.8-137.8-17.8-42.1-43.4-80-76-112.5s-70.5-58.1-112.7-75.9c-43.6-18.4-90-27.8-137.9-27.8-47.9 0-94.3 9.4-137.9 27.8-42.2 17.8-80.1 43.4-112.7 75.9-7.9 7.9-15.3 16.1-22.4 24.5-3 3.7-7.6 5.8-12.3 5.8H165c-6.3 0-10.2-7-6.7-12.3C234.9 32.8 368.5-46 520.6-46c236.2 0 428 190.1 430.4 425.6C953.4 618.9 761.3 813.4 521.7 814zM395.025 272v76h-314c-4.4 0-8 3.6-8 8v56c0 4.4 3.6 8 8 8h314v76c0 6.7 7.8 10.5 13 6.3l141.9-112c4.1-3.2 4.1-9.4 0-12.6l-141.9-112c-5.2-4.1-13-0.4-13 6.3z"  horiz-adv-x="1024" />
      
      <glyph glyph-name="clear" unicode="&#59050;" d="M656.4 150.7c-5.1-20.4-31.2-65-72.6-125 11.3-2.7 22.2-5.7 33.2-7.7 20.1-3.7 40.3-6.5 60.4-10.2 6.6-1.2 9.9 1.2 13.4 6.4 40.4 60.1 73 124.2 100.3 191.1 10.7 26.2 19.8 53 29.7 79.5 1 2.7 2 5.4 3.2 8.6 21.6-7.5 42.8-14.8 65-22.4-4-11.6-7.6-22.6-11.5-33.5-33.2-92.3-74.6-180.6-129.7-262.1-4.6-6.8-9.8-13.1-14.3-19.9-10.4-15.6-24.9-20.4-43.1-18.7-70.2 6.7-138.1 22.6-204 47.4-119.8 45.1-223 114.1-304.8 213.6-9.8 11.9-12.6 25.1-6.2 39.1 6.2 13.5 18 19.6 32.5 19.8 62.3 0.8 122.3 13.3 180.3 35.2 52.5 19.9 100.4 47.4 137.2 90.9 10.7 12.6 19.4 26.9 29.5 41 19-10.7 38.5-21.7 60-33.8-11.1-16.1-21-32.2-32.7-47-28.5-36-64.4-63.4-104.3-85.6-60.1-33.4-125-52.7-192.6-63.6-1.3-0.2-2.7-0.5-5.9-1.1 9.7-8.9 17.8-17.1 26.8-24.4 16.8-13.6 33.9-26.9 51.3-39.6 3.4-2.5 9.3-3.5 13.5-2.6 34.7 7.8 66.5 21.7 93.2 46.4-2.3-12.1-24.2-43-55-77.3 19.3-9.6 38.8-18.1 57-28.8 23.6-13.8 46.1-10.1 69.2-0.1 39.1 16.9 72.6 42.1 104.6 69.5 5.2 4.9 10.3 9.5 16.4 14.9zM909.6 328.8c1.7 4.7 3.4 8.7 4.6 12.8 15.5 52.7-8.5 105.8-59.4 129.4-43.4 20.1-87.2 39.3-131 58.4-34.1 14.9-67.7 12.7-99.9-6.2-19.2-11.3-33.4-27.4-42.5-48.4 109.7-48.7 218.5-97.2 328.2-146zM860.9 520c1 1.9 1.7 2.9 2 4 31.7 87.7 63.4 175.5 95.3 263.2 3.4 9.3 1.9 17.2-4.2 24.5-9.2 11-21.2 17.1-35.3 19.2-15.4 2.2-23.7-1.8-30.9-15.2-42.7-80.1-85.4-160.1-128.1-240.2-1.3-2.5-2.5-5.1-3.8-7.7 1-0.9 1.5-1.7 2.2-2 34.2-15.2 68.3-30.4 102.8-45.8zM340 435.5c1.1 46.6-37.8 86.8-85.1 87.7-46.2 0.9-86.4-38-87.4-84.7-1-47 37.2-86.6 84.8-88.1 46.5-1.4 86.5 37.4 87.7 85.1zM115.9 695.4c-28.6 0.1-51.9-23-51.9-51.5 0-28.3 23.8-52 51.9-51.8 28.1 0.2 51.2 23.3 51.4 51.4 0.3 28.5-22.8 51.8-51.4 51.9zM236.8 626.6c0-19 15.7-34.7 34.6-34.5 18.5 0.2 34 15.6 34.3 34.1 0.3 18.8-15.3 34.6-34.3 34.8-19.3 0.1-34.6-15.2-34.6-34.4z"  horiz-adv-x="1024" />
      
      <glyph glyph-name="niantie" unicode="&#58957;" d="M469.333333 42.666667a42.666667 42.666667 0 0 0 0-85.333334H298.666667a213.333333 213.333333 0 0 0-213.333334 213.333334V640a213.333333 213.333333 0 0 0 213.333334 213.333333h341.333333a213.333333 213.333333 0 0 0 213.333333-213.333333v-170.666667a42.666667 42.666667 0 0 0-85.333333 0V640a128 128 0 0 1-128 128H298.666667a128 128 0 0 1-128-128v-469.333333a128 128 0 0 1 128-128h170.666666z m213.333334 341.333333h170.666666a128 128 0 0 0 128-128v-213.333333a128 128 0 0 0-128-128h-170.666666a128 128 0 0 0-128 128v213.333333a128 128 0 0 0 128 128z m0-85.333333a42.666667 42.666667 0 0 1-42.666667-42.666667v-213.333333a42.666667 42.666667 0 0 1 42.666667-42.666667h170.666666a42.666667 42.666667 0 0 1 42.666667 42.666667v213.333333a42.666667 42.666667 0 0 1-42.666667 42.666667h-170.666666zM306.304 554.666667a42.666667 42.666667 0 0 0 0 85.333333H640a42.666667 42.666667 0 0 0 0-85.333333H306.304z m0-213.333334a42.666667 42.666667 0 0 0 0 85.333334H512a42.666667 42.666667 0 0 0 0-85.333334H306.304z m0-213.333333a42.666667 42.666667 0 0 0 0 85.333333H426.666667a42.666667 42.666667 0 0 0 0-85.333333H306.304z"  horiz-adv-x="1024" />
      
      <glyph glyph-name="wodewenjian" unicode="&#58966;" d="M640 707.626667V597.333333h110.336L640 707.626667zM426.666667 554.666667a42.666667 42.666667 0 0 0 0-85.333334H341.333333a42.666667 42.666667 0 0 0 0 85.333334h85.333334z m256-170.666667a42.666667 42.666667 0 0 0 0-85.333333H341.333333a42.666667 42.666667 0 0 0 0 85.333333h341.333334z m0-170.666667a42.666667 42.666667 0 0 0 0-85.333333H341.333333a42.666667 42.666667 0 0 0 0 85.333333h341.333334zM554.666667 768H256a42.666667 42.666667 0 0 1-42.666667-42.666667v-682.666666a42.666667 42.666667 0 0 1 42.666667-42.666667h512a42.666667 42.666667 0 0 1 42.666667 42.666667V512h-213.333334a42.666667 42.666667 0 0 0-42.368 37.674667L554.666667 554.666667V768z m42.666666 85.333333c1.834667 0 3.626667-0.128 5.376-0.341333L597.333333 853.333333a43.861333 43.861333 0 0 0 10.666667-1.322666l1.28-0.384a41.6 41.6 0 0 0 3.882667-1.322667l1.152-0.512a33.152 33.152 0 0 0 3.498666-1.706667l1.322667-0.768a48.64 48.64 0 0 0 4.821333-3.370666l3.498667-3.114667 256-256c1.237333-1.237333 2.432-2.56 3.498667-3.968l-3.498667 3.968a40.661333 40.661333 0 0 0 6.485333-8.32l0.768-1.365333a33.152 33.152 0 0 0 1.706667-3.498667l0.469333-1.152c0.512-1.28 0.981333-2.56 1.365334-3.882667l0.341333-1.28a38.4 38.4 0 0 0 0.810667-3.968l0.170666-1.322666c0.298667-1.749333 0.426667-3.541333 0.426667-5.376v-512a128 128 0 0 0-128-128H256a128 128 0 0 0-128 128V725.333333a128 128 0 0 0 128 128h341.333333z"  horiz-adv-x="1024" />
      
      <glyph glyph-name="fuzhi1" unicode="&#58964;" d="M890.197333 854.016H347.178667C296.832 854.016 256 814.805333 256 766.464v-75.861333h86.016V739.072c0 16.128 13.610667 29.184 30.378667 29.184h492.16c16.768 0 30.378667-13.056 30.378666-29.184v-539.349333c0-7.68-3.2-15.061333-8.96-20.437334a30.378667 30.378667 0 0 0-21.461333-8.149333H733.866667v-85.12h156.245333c50.133333 0 90.88 38.826667 91.178667 86.954667V766.464C981.333333 814.805333 940.501333 854.016 890.197333 854.016zM676.864 681.984H133.845333C83.498667 681.984 42.666667 642.773333 42.666667 594.432v-75.861333h86.016V567.04c0 16.128 13.610667 29.184 30.378666 29.184h492.16c16.768 0 30.378667-13.056 30.378667-29.184v-539.349333c0-7.68-3.2-15.061333-8.96-20.437334a30.378667 30.378667 0 0 0-21.461333-8.149333H520.533333v-85.12h156.245334c50.133333 0 90.88 38.826667 91.178666 86.954667V594.432c0.042667 48.341333-40.789333 87.552-91.093333 87.552zM42.709333 594.432v-593.493333c0.298667-48.128 41.045333-86.954667 91.178667-86.954667H546.133333v85.12H159.445333a30.378667 30.378667 0 0 0-21.461333 8.149333 27.946667 27.946667 0 0 0-8.96 20.437334V567.04c0 16.128 13.610667 29.184 30.378667 29.184h492.16c16.768 0 30.378667-13.056 30.378666-29.184v-48.469333H768V594.432c0 48.341333-40.832 87.552-91.178667 87.552H133.802667c-50.304 0-91.136-39.210667-91.093334-87.552zM256 511.317333h298.666667a42.666667 42.666667 0 0 0 0-85.333333H256a42.666667 42.666667 0 0 0 0 85.333333zM256 340.650667h298.666667a42.666667 42.666667 0 0 0 0-85.333334H256a42.666667 42.666667 0 0 0 0 85.333334zM256 169.984h298.666667a42.666667 42.666667 0 0 0 0-85.333333H256a42.666667 42.666667 0 0 0 0 85.333333z"  horiz-adv-x="1024" />
      
      <glyph glyph-name="xinjiangongcheng" unicode="&#58967;" d="M640 707.626667V597.333333h110.336L640 707.626667zM512 426.666667a42.666667 42.666667 0 0 0 42.666667-42.666667v-85.333333h85.333333a42.666667 42.666667 0 0 0 42.368-37.674667L682.666667 256a42.666667 42.666667 0 0 0-42.666667-42.666667h-85.333333v-85.333333a42.666667 42.666667 0 0 0-37.674667-42.368L512 85.333333a42.666667 42.666667 0 0 0-42.666667 42.666667v85.333333H384a42.666667 42.666667 0 0 0-42.368 37.674667L341.333333 256a42.666667 42.666667 0 0 0 42.666667 42.666667h85.333333v85.333333a42.666667 42.666667 0 0 0 37.674667 42.368L512 426.666667z m42.666667 341.333333H256a42.666667 42.666667 0 0 1-42.666667-42.666667v-682.666666a42.666667 42.666667 0 0 1 42.666667-42.666667h512a42.666667 42.666667 0 0 1 42.666667 42.666667V512h-213.333334a42.666667 42.666667 0 0 0-42.368 37.674667L554.666667 554.666667V768z m42.666666 85.333333c1.834667 0 3.626667-0.128 5.376-0.341333L597.333333 853.333333a43.861333 43.861333 0 0 0 10.666667-1.322666l1.28-0.384a41.6 41.6 0 0 0 3.882667-1.322667l1.152-0.512a33.152 33.152 0 0 0 3.498666-1.706667l1.322667-0.768a48.64 48.64 0 0 0 4.821333-3.370666l3.498667-3.114667 256-256c1.237333-1.237333 2.432-2.56 3.498667-3.968l-3.498667 3.968a40.661333 40.661333 0 0 0 6.485333-8.32l0.768-1.365333a33.152 33.152 0 0 0 1.706667-3.498667l0.469333-1.152c0.512-1.28 0.981333-2.56 1.365334-3.882667l0.341333-1.28a38.4 38.4 0 0 0 0.810667-3.968l0.170666-1.322666c0.298667-1.749333 0.426667-3.541333 0.426667-5.376v-512a128 128 0 0 0-128-128H256a128 128 0 0 0-128 128V725.333333a128 128 0 0 0 128 128h341.333333z"  horiz-adv-x="1024" />
      
      <glyph glyph-name="xinjianwenjianjia" unicode="&#58968;" d="M492.16 682.666667H853.333333a128 128 0 0 0 128-128v-469.333334a128 128 0 0 0-128-128H170.666667a128 128 0 0 0-128 128V682.666667a128 128 0 0 0 128 128h213.333333a42.666667 42.666667 0 0 0 35.498667-18.986667L492.16 682.666667z m-130.986667 42.666666H170.666667a42.666667 42.666667 0 0 1-42.666667-42.666666v-597.333334a42.666667 42.666667 0 0 1 42.666667-42.666666h682.666666a42.666667 42.666667 0 0 1 42.666667 42.666666V554.666667a42.666667 42.666667 0 0 1-42.666667 42.666666h-384a42.666667 42.666667 0 0 0-35.498666 18.986667L361.173333 725.333333zM512 475.008a42.666667 42.666667 0 0 0 42.666667-42.666667v-85.333333h85.333333a42.666667 42.666667 0 0 0 42.368-37.674667l0.298667-4.992a42.666667 42.666667 0 0 0-42.666667-42.666666h-85.333333v-85.333334a42.666667 42.666667 0 0 0-37.674667-42.368l-4.992-0.298666a42.666667 42.666667 0 0 0-42.666667 42.666666v85.333334H384a42.666667 42.666667 0 0 0-42.368 37.674666L341.333333 304.341333a42.666667 42.666667 0 0 0 42.666667 42.666667h85.333333v85.333333a42.666667 42.666667 0 0 0 37.674667 42.368L512 475.008z"  horiz-adv-x="1024" />
      
      <glyph glyph-name="zuojiantou_huaban" unicode="&#58939;" d="M617.38 22.3L289.61 350.06c-18.72 18.72-18.72 49.16 0 67.88L617.38 745.7c12.5 12.5 32.75 12.5 45.25 0s12.5-32.75 0-45.25L346.17 384l316.45-316.45c12.5-12.5 12.5-32.75 0-45.25-6.25-6.25-14.44-9.38-22.62-9.38s-16.38 3.13-22.62 9.38zM334.55 372.69h0.31-0.31z"  horiz-adv-x="1024" />
      
      <glyph glyph-name="youjiantou_huaban" unicode="&#58940;" d="M384 12.92c-8.19 0-16.38 3.12-22.62 9.38-12.5 12.5-12.5 32.75 0 45.25L677.83 384 361.38 700.45c-12.5 12.5-12.5 32.75 0 45.25s32.75 12.5 45.25 0L734.4 417.93c18.72-18.72 18.72-49.16 0-67.88L406.62 22.3c-6.24-6.25-14.43-9.38-22.62-9.38z m305.14 359.77h0.31-0.31z"  horiz-adv-x="1024" />
      
      <glyph glyph-name="xiajiantou_huaban" unicode="&#58941;" d="M873.7 489.38L545.94 161.61c-18.72-18.72-49.16-18.72-67.88 0L150.3 489.38c-12.5 12.5-12.5 32.75 0 45.25s32.75 12.5 45.25 0L512 218.17l316.45 316.45c12.5 12.5 32.75 12.5 45.25 0 6.25-6.25 9.38-14.44 9.38-22.62s-3.13-16.38-9.38-22.62zM523.31 206.55v0.31-0.31z"  horiz-adv-x="1024" />
      
      <glyph glyph-name="shangjiantou_huaban" unicode="&#58942;" d="M150.3 278.62l327.77 327.77c18.72 18.72 49.16 18.72 67.88 0L873.7 278.62c12.5-12.5 12.5-32.75 0-45.25s-32.75-12.5-45.25 0L512 549.83 195.55 233.38c-12.5-12.5-32.75-12.5-45.25 0-6.25 6.25-9.38 14.44-9.38 22.62s3.13 16.38 9.38 22.62z m350.39 282.83v-0.31 0.31z"  horiz-adv-x="1024" />
      
      <glyph glyph-name="zhongyingwenqiehuan" unicode="&#59153;" d="M844.224 28.8256c-21.7728 0-34.7648 12.3264-34.7648 32.9856v123.0592c0 33.7536-22.1824 33.7536-30.5408 33.7536-38.9376 0-39.3856-38.6944-39.3856-39.104v-117.7088c0-20.032-13.2224-32.9856-33.7152-32.9856-21.4528 0-34.7776 12.6336-34.7776 32.9856V248.0256c0 20.5952 13.056 33.3696 34.0608 33.3696 15.1808 0 26.2528-6.528 31.3344-17.7792 12.544 9.3696 30.3616 17.7792 55.0016 17.7792 54.144 0 86.4896-33.6768 86.4896-90.0736v-129.5104c0.0128-12.2496-4.8256-19.6864-8.8832-23.7312-6.0288-6.0544-14.6176-9.2544-24.8192-9.2544z m-233.216 7.4752H476.1728c-42.7904 0-61.888 18.9696-61.888 61.5552V287.6544c0 42.5472 19.0976 61.5296 61.888 61.5296h128.7936c19.8272 0 32.64-12.672 32.64-32.2688 0-19.8272-12.8128-32.6528-32.64-32.6528h-116.3008c-2.2528 0-3.3536-0.3584-3.5968-0.4992 0.128 0.0384-0.1408-0.8064-0.1408-2.8928v-52.608h106.1248c30.2848-0.0768 32.64-24.1792 32.64-31.5776 0-19.4048-12.8128-31.9104-32.64-31.9104h-106.1248v-60.1344c0-1.856 0.2432-2.8032 0.3584-3.1488 0.1152 0.0384 1.2032-0.2432 3.3792-0.2432h122.3552c22.5792 0 32.6784-16.2176 32.6784-32.2816-0.0128-20.1472-12.5184-32.6656-32.6912-32.6656zM325.504 412.928c-22.7968 0-35.8656 12.3264-35.8656 33.8304V525.312h-85.3632c-45.8752 0-66.3424 20.4672-66.3424 66.3424V685.568c0 45.6064 20.4672 65.9328 66.3424 65.9328h85.3632V783.0528c0 20.9408 12.8128 33.4336 34.2528 33.4336 30.272 0 36.6336-18.176 36.6336-33.4336v-31.5776h86.1312c45.888 0 66.3552-20.3392 66.3552-65.92v-93.9264c0-45.8752-20.4672-66.3296-66.3552-66.3296h-86.1312v-78.5536c0-21.1712-13.0944-33.8176-35.0208-33.8176z m-110.3872 271.68c-6.4768 0-7.0784-0.6016-7.0784-7.0784v-78.2336c0-6.5408 0.6016-7.1424 7.0784-7.1424h74.5216v92.4544h-74.5216z m145.408-92.416h75.3152c6.2976 0 7.0912 0.8064 7.0912 7.0784v78.2848c0 6.2848-0.7936 7.0912-7.0912 7.0912h-75.3152v-92.4544zM512-64C265.4976-64 64.9472 136.9728 64.9472 384c0 35.6736 4.2112 71.2192 12.5312 105.6768 4.5568 18.8544 24.2048 30.8736 43.0464 26.304a35.4176 35.4176 0 0 0 22.0544-16.0384c4.992-8.1408 6.4896-17.7152 4.2496-26.9824a379.136 379.136 0 0 1-10.5344-88.9216c0-207.7312 168.5504-376.6912 375.7184-376.6912a35.712 35.712 0 0 0 35.648-35.6608A35.7248 35.7248 0 0 0 512-64z m398.6944 310.1952a35.904 35.904 0 0 0-28.1728 13.7728 35.9424 35.9424 0 0 0-6.4256 30.656c7.7184 30.3232 11.6096 61.7216 11.6096 93.376 0 207.7056-168.5504 376.6912-375.7184 376.6912a35.712 35.712 0 0 0-35.648 35.6608A35.712 35.712 0 0 0 512 832c246.5024 0 447.0528-200.9728 447.0528-448 0-37.504-4.6464-74.8288-13.8112-110.912a35.6224 35.6224 0 0 0-34.5472-26.8928z"  horiz-adv-x="1024" />
      
      <glyph glyph-name="zhongyingwen" unicode="&#59299;" d="M568.25 412.21875h-8.0625l30.9375-172.5c20.53125 7.40625 39.09375 18.1875 55.5 32.53125-16.78125 20.53125-30.65625 43.3125-41.15625 67.6875l32.625 4.21875c9-18.46875 19.3125-34.78125 30.9375-48.84375 24.09375 29.25 42.65625 68.25 55.59375 117l-156.375-0.09375z m123.1875-140.0625c18.5625-16.125 39.75-27.84375 63.5625-35.15625l14.90625-4.59375-8.71875-31.78125-14.90625 4.59375c-28.59375 8.71875-54.9375 23.71875-77.25 43.6875-20.90625-18.75-45.375-33.09375-72-42L617.9375 90.75H493.71875l-16.6875-75.9375h389.25c18.28125 0 33.09375 14.8125 33.09375 33.09375V610.875c0 18.28125-14.8125 33.09375-33.09375 33.09375H518.5625l25.875-144.28125-1.03125 0.375 3-15.84375 0.46875 2.0625 7.3125-41.0625h80.25v33.09375h62.0625v-33.09375h103.5V412.125h-43.125c-14.4375-58.125-36.1875-104.90625-65.4375-139.96875zM459.78125 90.9375H157.71875c-36.5625 0-66.1875 29.625-66.1875 66.1875V720.09375c0 36.5625 29.625 66.1875 66.1875 66.1875h331.125l20.8125-109.21875h356.53125c36.5625 0 66.1875-29.625 66.1875-66.1875v-562.96875c0-36.5625-29.625-66.1875-66.1875-66.1875H435.78125l24 109.21875z m-156.46875 255v34.78125h-65.4375v51.28125h60.84375V466.5h-60.84375v43.6875h65.4375v34.5H199.8125v-198.65625h103.5z m159.9375 0V445.03125c0 18-4.125 31.78125-12.375 41.4375-8.25 9.5625-20.4375 14.34375-36.375 14.34375-9.375 0-17.71875-1.875-25.03125-5.625-7.3125-3.75-13.3125-9.46875-17.25-16.6875h-2.0625l-5.0625 19.40625h-28.6875v-151.96875h37.5v71.53125c0 17.90625 2.34375 30.75 7.03125 38.53125 4.59375 7.78125 12.28125 11.625 22.78125 11.625 7.6875 0 13.3125-2.71875 16.78125-8.25 3.5625-5.53125 5.34375-13.6875 5.34375-24.65625v-88.78125H463.25z"  horiz-adv-x="1024" />
      
      <glyph glyph-name="jiantou_shang" unicode="&#58932;" d="M434.666714 708.530676C297.43919 528.723334 160.191798 348.917799 22.964274 169.110458c-48.854624-64.034092-3.20604-156.297589 77.324255-156.297589h823.421135c80.530295 0 126.198748 92.263496 77.324256 156.297589C863.806396 348.917799 726.559004 528.723334 589.333286 708.530676c-38.933061 51.01125-115.733512 51.01125-154.666572 0z"  horiz-adv-x="1024" />
      
      <glyph glyph-name="jiantou_you" unicode="&#58933;" d="M836.510807 461.342317C656.703466 598.566229 476.896125 735.79014 297.110458 873.035726 233.074559 921.888544 140.812869 876.241765 140.812869 795.693408v-823.38501c0-80.548357 92.26169-126.196941 156.297589-77.322449 179.785667 137.225717 359.593008 274.447822 539.400349 411.691602 51.01125 38.933061 51.01125 115.711837 0 154.664766z"  horiz-adv-x="1024" />
      
      <glyph glyph-name="jiantou_xia" unicode="&#58934;" d="M589.320643 59.487386c137.245586 179.809148 274.469497 359.614683 411.693408 539.422024 48.874492 64.014224 3.225908 156.297589-77.322449 156.297589H100.306592c-80.548357 0-126.195135-92.283365-77.342318-156.297589 137.24378-179.807341 274.467691-359.612876 411.713277-539.422024 38.933061-51.009444 115.711837-51.009444 154.643092 0z"  horiz-adv-x="1024" />
      
      <glyph glyph-name="jiantou_zuo" unicode="&#58935;" d="M187.472937 306.677551c179.809148-137.24378 359.620101-274.467691 539.431055-411.691602 64.01603-48.874492 156.299395-3.225908 156.299395 77.322449V795.693408c0 80.548357-92.283365 126.195135-156.299395 77.342318a8736038.67748 8736038.67748 0 0 0-539.431055-411.691602c-51.013056-38.954735-51.013056-115.733512 0-154.666573z"  horiz-adv-x="1024" />
      
      <glyph glyph-name="a-icon_qianbijinqian" unicode="&#58965;" d="M512 163.84c-32.853333 0-66.133333 12.373333-91.306667 37.546667l-91.306666 91.306666a128.768 128.768 0 0 0 0 182.186667l91.306666 91.306667a128.768 128.768 0 0 0 182.186667 0l91.306667-91.306667a128.768 128.768 0 0 0 0-182.186667l-91.306667-91.306666c-24.746667-25.173333-58.026667-37.546667-90.88-37.546667z m0 354.986667c-11.093333 0-22.186667-4.266667-30.72-12.8l-91.306667-91.306667c-17.066667-17.066667-17.066667-44.373333 0-61.44l91.306667-91.306667c17.066667-17.066667 44.373333-17.066667 61.44 0l91.306667 91.306667c17.066667 17.066667 17.066667 44.373333 0 61.44l-91.306667 91.306667c-8.533333 8.533333-19.626667 12.8-30.72 12.8zM512-85.333333C253.013333-85.333333 42.666667 125.013333 42.666667 384S253.013333 853.333333 512 853.333333s469.333333-210.346667 469.333333-469.333333-210.346667-469.333333-469.333333-469.333333z m0 853.333333c-211.626667 0-384-172.373333-384-384s172.373333-384 384-384 384 172.373333 384 384-172.373333 384-384 384z"  horiz-adv-x="1024" />
      
      <glyph glyph-name="dingyue" unicode="&#58884;" d="M708.096 265.1264l0-110.7584c0-10.0992-10.9568-16.3904-19.68-11.296l-136.3776 83.1296c-12.5312 7.392-26.3104 11.04-40.0384 11.04s-27.5008-3.6416-40.032-11.04l-129.9392-83.0848c-8.7232-5.088-19.6736 1.2032-19.6736 11.296L322.3552 645.1584c0 6.6752 2.976 12.7744 7.68 17.1904 4.9408 4.6976 11.904 7.5904 19.68 7.5904l330.976 0c7.776 0 14.7392-2.8864 19.776-7.5904 4.6592-4.4096 7.6288-10.5152 7.6288-17.1904l0-20.5504c0-7.2192 5.856-13.0816 13.0816-13.0816l65.7344 0c7.232 0 13.088 5.8624 13.088 13.0816l0 66.112c0 21.4592-9.2608 40.9024-24.192 54.912-14.688 13.7728-34.8928 22.368-56.9728 22.368L305.1712 768c-22.1312 0-42.2848-8.5952-56.9728-22.368C233.2608 731.616 224 712.128 224 690.72l0.0512-665.0368c0-4.4608 1.2032-9.024 3.6992-13.1008 7.392-12.1024 23.4688-16.0384 35.8016-8.7872l233.088 136.032c4.7488 2.784 10.0352 4.1728 15.3152 4.1728 5.28 0 10.6112-1.3952 15.36-4.1728l231.1232-134.9248c0.224-0.1344 0.4352-0.2688 0.6528-0.4096 4.2048-2.8352 9.3248-4.4864 14.752-4.4864 14.4512 0 26.1632 11.4752 26.1632 25.5872L800.0064 265.1264c0 7.232-5.856 13.088-13.088 13.088l-65.7344 0C713.952 278.2144 708.096 272.3584 708.096 265.1264L708.096 265.1264zM535.296 265.1264M507.296 410.4128l0 54.1952c0 8.6528 7.008 15.6544 15.6544 15.6544l259.6992 0c8.6464 0 15.6544-7.008 15.6544-15.6544l0-54.1952c0-8.6464-7.0144-15.6544-15.6544-15.6544L522.9504 394.7584C514.2976 394.7584 507.296 401.7664 507.296 410.4128L507.296 410.4128zM507.296 410.4128M679.8976 292.0064l-54.1952 0c-8.6528 0-15.6544 7.0016-15.6544 15.648L610.048 567.36c0 8.6464 7.008 15.6544 15.6544 15.6544l54.1952 0c8.64 0 15.648-7.0144 15.648-15.6544l0-259.7056C695.552 299.008 688.5376 292.0064 679.8976 292.0064L679.8976 292.0064zM679.8976 292.0064"  horiz-adv-x="1024" />
      
      <glyph glyph-name="xiazai" unicode="&#59116;" d="M853.333333 341.333333a42.666667 42.666667 0 0 0 42.368-37.674666L896 298.666667v-146.304c0-83.029333-72.96-148.181333-162.005333-152.149334L725.333333 0H298.666667c-90.026667 0-165.802667 62.549333-170.453334 144.384L128 152.362667V298.666667a42.666667 42.666667 0 0 0 85.034667 4.992L213.333333 298.666667v-146.304c0-33.664 33.28-63.872 78.165334-66.816L298.666667 85.333333h426.666666c46.08 0 81.621333 28.501333 85.077334 61.781334L810.666667 152.32V298.666667a42.666667 42.666667 0 0 0 42.666666 42.666666z m-302.549333 100.266667V686.549333a38.784 38.784 0 0 1-77.568 0v-244.906666H317.098667a21.333333 21.333333 0 0 1-14.421334-37.077334l187.52-172.373333a32 32 0 0 1 43.477334 0.128l184.704 172.373333a21.333333 21.333333 0 0 1-14.592 36.906667H550.826667z"  horiz-adv-x="1024" />
      
      <glyph glyph-name="caidan" unicode="&#59117;" d="M213.333333 725.333333h597.333334a42.666667 42.666667 0 0 0 0-85.333333H213.333333a42.666667 42.666667 0 1 0 0 85.333333z m0-298.666666h597.333334a42.666667 42.666667 0 0 0 0-85.333334H213.333333a42.666667 42.666667 0 0 0 0 85.333334z m0-298.666667h597.333334a42.666667 42.666667 0 0 0 0-85.333333H213.333333a42.666667 42.666667 0 0 0 0 85.333333z"  horiz-adv-x="1024" />
      
      <glyph glyph-name="xingbie" unicode="&#59118;" d="M554.666667 594.517333a320.042667 320.042667 0 1 0-85.333334 0V768a42.666667 42.666667 0 0 0 85.333334 0v-173.482667zM512 42.666667a234.666667 234.666667 0 1 1 0 469.333333 234.666667 234.666667 0 0 1 0-469.333333z"  horiz-adv-x="1024" />
      
      <glyph glyph-name="xiangxiajiantou" unicode="&#59119;" d="M512 333.994667l181.034667 181.034666a42.666667 42.666667 0 1 0 60.330666-60.330666l-211.2-211.2a42.666667 42.666667 0 0 0-60.330666 0l-211.2 211.2a42.666667 42.666667 0 1 0 60.330666 60.330666L512 333.994667z"  horiz-adv-x="1024" />
      
      <glyph glyph-name="wenjianjia" unicode="&#59120;" d="M85.333333 127.701333V640c0 42.666667 22.698667 128 128.213334 128H426.666667a42.666667 42.666667 0 0 0 30.165333-12.501333l60.330667-60.330667a42.666667 42.666667 0 0 1 30.165333-12.501333H853.333333a42.666667 42.666667 0 0 0 42.666667-42.666667v-85.333333a42.666667 42.666667 0 0 0-85.333333 0v21.333333a21.333333 21.333333 0 0 1-21.333334 21.333333h-259.669333A85.333333 85.333333 0 0 0 469.333333 622.336L421.546667 670.165333A42.666667 42.666667 0 0 1 391.338667 682.666667H213.333333a42.666667 42.666667 0 0 1-42.666666-42.666667v-469.248l47.829333 191.274667A85.333333 85.333333 0 0 0 301.269333 426.666667h576.64a64 64 0 0 0 62.037334-79.616L874.112 85.333333c-19.285333-76.842667-74.453333-85.333333-103.978667-85.333333H213.546667C128 0 85.333333 42.666667 85.333333 127.701333zM823.381333 341.333333H334.634667a42.666667 42.666667 0 0 1-41.386667-32.298666L243.925333 111.786667a21.333333 21.333333 0 0 1 20.693334-26.496h488.746666a42.666667 42.666667 0 0 1 41.386667 32.298666l49.322667 197.205334a21.333333 21.333333 0 0 1-20.693334 26.496z"  horiz-adv-x="1024" />
      
      <glyph glyph-name="wenzijianju" unicode="&#59121;" d="M298.666667 170.666667h426.666666v55.168a21.333333 21.333333 0 0 0 36.437334 15.061333l94.805333-94.805333a25.6 25.6 0 0 0 0-36.181334l-94.805333-94.805333a21.333333 21.333333 0 0 0-36.437334 15.061333V85.333333H298.666667v-55.168a21.333333 21.333333 0 0 0-36.437334-15.061333l-94.805333 94.805333a25.6 25.6 0 0 0 0 36.181334l94.805333 94.805333a21.333333 21.333333 0 0 0 36.437334-15.061333V170.666667z m256 469.333333v-341.333333a42.666667 42.666667 0 0 0-85.333334 0V640H256a42.666667 42.666667 0 1 0 0 85.333333h512a42.666667 42.666667 0 0 0 0-85.333333h-213.333333z"  horiz-adv-x="1024" />
      
      <glyph glyph-name="xiajiantou" unicode="&#59122;" d="M554.666667 226.56V682.666667a42.666667 42.666667 0 0 1-85.333334 0v-456.106667a8.533333 8.533333 0 0 0-14.549333-5.973333l-184.149333 184.106666a42.666667 42.666667 0 0 1-60.330667-60.330666l241.365333-241.365334a85.333333 85.333333 0 0 1 120.661334 0l241.365333 241.365334a42.666667 42.666667 0 0 1-60.330667 60.330666l-184.149333-184.149333a8.533333 8.533333 0 0 0-14.549333 6.058667z"  horiz-adv-x="1024" />
      
      <glyph glyph-name="wenjian" unicode="&#59123;" d="M127.573333 519.253333a85.333333 85.333333 0 0 0 25.002667 60.416l206.762667 206.378667a85.333333 85.333333 0 0 0 60.288 24.917333h262.570666a213.333333 213.333333 0 0 0 213.333334-213.333333v-426.666667a213.333333 213.333333 0 0 0-213.333334-213.333333h-341.333333a213.333333 213.333333 0 0 0-213.333333 213.333333V519.296z m554.666667 206.378667h-212.565333v-128.682667a128 128 0 0 0-128-128H212.864v-297.984a128 128 0 0 1 128-128h341.333333a128 128 0 0 1 128 128v426.666667a128 128 0 0 1-128 128zM384 690.005333L248.661333 554.666667H341.333333a42.666667 42.666667 0 0 1 42.368 37.674666L384 597.333333V690.005333z"  horiz-adv-x="1024" />
      
      <glyph glyph-name="yanjing" unicode="&#59124;" d="M512 768c230.058667 0 421.461333-165.546667 461.610667-384-40.106667-218.453333-231.552-384-461.610667-384-230.058667 0-421.461333 165.546667-461.610667 384C90.496 602.453333 281.941333 768 512 768z m0-682.666667c179.2 0 334.592 123.946667 374.485333 298.666667a384.213333 384.213333 0 0 1-748.970666 0A384.213333 384.213333 0 0 1 512 85.333333z m0 106.666667a192 192 0 1 0 0 384 192 192 0 0 0 0-384z m0 85.333333a106.666667 106.666667 0 1 1 0 213.333334 106.666667 106.666667 0 0 1 0-213.333334z"  horiz-adv-x="1024" />
      
      <glyph glyph-name="xiangji" unicode="&#59125;" d="M588.373333 767.232a128 128 0 0 0 84.352-31.786667l6.186667-5.76L725.845333 682.666667 773.333333 682.666667c82.645333 0 150.186667-64.853333 154.453334-146.432l0.213333-8.234667v-373.333333c0-82.645333-64.853333-150.186667-146.432-154.453334l-8.234667-0.213333H250.666667a154.666667 154.666667 0 0 0-154.453334 146.432l-0.213333 8.234667v373.333333c0 82.645333 64.853333 150.186667 146.432 154.453333L250.666667 682.666667h48.341333L345.6 729.514667a128 128 0 0 0 82.261333 37.461333l8.533334 0.298667h151.936z m0-85.333333h-152.021333a42.666667 42.666667 0 0 1-26.026667-8.874667l-4.224-3.712-60.16-60.458667a42.666667 42.666667 0 0 0-19.2-11.136V597.333333l-1.834666-0.042666a42.666667 42.666667 0 0 0-9.173334-1.024H256.128l-0.042667 1.109333L250.666667 597.333333c-36.266667 0-66.048-27.861333-69.077334-63.36l-0.256-5.973333v-373.333333c0-36.266667 27.861333-66.048 63.36-69.077334l5.973334-0.256h522.666666c36.266667 0 66.048 27.861333 69.077334 63.36l0.256 5.973334v373.333333c0 36.266667-27.861333 66.048-63.36 69.077333L773.333333 597.333333h-4.48v-1.066666h-59.648a42.666667 42.666667 0 0 0-30.165333 12.544l-60.501333 60.586666a42.666667 42.666667 0 0 1-24.576 12.117334l-5.632 0.384zM512 597.333333a234.666667 234.666667 0 1 0 0-469.333333 234.666667 234.666667 0 0 0 0 469.333333z m0-85.333333a149.333333 149.333333 0 1 1 0-298.666667 149.333333 149.333333 0 0 1 0 298.666667z"  horiz-adv-x="1024" />
      
      <glyph glyph-name="yuechi" unicode="&#59126;" d="M459.008 391.338667L763.733333 696.064A42.666667 42.666667 0 0 0 824.064 635.733333l-30.165333-30.208 75.392-75.392A42.666667 42.666667 0 0 0 808.96 469.76l-75.434667 75.434667-60.330666-60.330667 60.330666-60.330667a42.666667 42.666667 0 0 0-60.330666-60.373333l-60.330667 60.373333-93.525333-93.525333a213.418667 213.418667 0 0 0-328.874667-268.544 213.333333 213.333333 0 0 0 268.544 328.874667z m8.789333-143.530667A128 128 0 0 1 250.88 303.786667a128 128 0 0 1 180.992-180.992 128.170667 128.170667 0 0 1 35.925333 125.013333z"  horiz-adv-x="1024" />
      
      <glyph glyph-name="wenhao" unicode="&#59127;" d="M512-42.666667C276.352-42.666667 85.333333 148.352 85.333333 384S276.352 810.666667 512 810.666667s426.666667-191.018667 426.666667-426.666667-191.018667-426.666667-426.666667-426.666667z m0 85.333334a341.333333 341.333333 0 1 1 0 682.666666 341.333333 341.333333 0 0 1 0-682.666666z m0 213.333333a42.666667 42.666667 0 1 0 0-85.333333 42.666667 42.666667 0 0 0 0 85.333333z m28.928 42.666667H490.666667a21.333333 21.333333 0 0 0-21.333334 21.333333v42.666667a42.666667 42.666667 0 0 0 42.666667 42.666666 64 64 0 1 1-45.653333 108.885334 27.733333 27.733333 0 0 1-3.968-5.333334 49.92 49.92 0 0 0-52.736-23.466666l-2.858667 0.554666a37.845333 37.845333 0 0 0-25.728 55.338667 149.418667 149.418667 0 1 0 179.413333-213.248 8.533333 8.533333 0 0 1-5.802666-8.106667v-7.552a13.781333 13.781333 0 0 0-13.738667-13.738666z"  horiz-adv-x="1024" />
      
      <glyph glyph-name="xiazai2" unicode="&#59128;" d="M42.666667 277.333333a277.162667 277.162667 0 0 0 130.730666 235.477334 341.376 341.376 0 0 0 677.205334 0 277.333333 277.333333 0 0 0-125.269334-512L298.666667 0c-143.189333 11.690667-256 131.328-256 277.333333z m847.957333-45.568a192 192 0 0 1-85.162667 208.64l-34.432 21.461334-5.12 40.192a256.042667 256.042667 0 0 1-507.861333 0l-5.12-40.192-34.346667-21.461334a192 192 0 0 1 86.570667-354.517333l7.381333-0.554667h398.933334l7.381333 0.554667a192 192 0 0 1 171.776 145.877333zM554.666667 384V512a42.666667 42.666667 0 0 1-85.333334 0v-128H385.706667a21.333333 21.333333 0 0 1-16.64-34.645333l109.653333-137.045334a42.666667 42.666667 0 0 1 66.56 0l109.653333 137.045334a21.333333 21.333333 0 0 1-16.64 34.645333H554.666667z"  horiz-adv-x="1024" />
      
      <glyph glyph-name="yuyan" unicode="&#59129;" d="M512-42.666667C276.352-42.666667 85.333333 148.352 85.333333 384S276.352 810.666667 512 810.666667s426.666667-191.018667 426.666667-426.666667-191.018667-426.666667-426.666667-426.666667z m-97.706667 99.541334A763.733333 763.733333 0 0 0 342.485333 341.333333H173.312a341.674667 341.674667 0 0 1 240.981333-284.458666zM427.946667 341.333333c6.442667-104.064 36.181333-201.813333 84.053333-288.085333A678.613333 678.613333 0 0 1 596.053333 341.333333h-168.106666z m422.741333 0h-169.173333a763.733333 763.733333 0 0 0-71.808-284.458666A341.674667 341.674667 0 0 1 850.688 341.333333zM173.312 426.666667h169.173333A763.733333 763.733333 0 0 0 414.293333 711.125333 341.674667 341.674667 0 0 1 173.312 426.666667z m254.677333 0h168.021334A678.613333 678.613333 0 0 1 512 714.752 678.613333 678.613333 0 0 1 427.946667 426.666667h0.042666z m181.717334 284.458666A763.733333 763.733333 0 0 0 681.514667 426.666667h169.173333a341.674667 341.674667 0 0 1-240.981333 284.458666z"  horiz-adv-x="1024" />
      
      <glyph glyph-name="youjiantou" unicode="&#59130;" d="M562.005333 384l-181.034666-181.034667a42.666667 42.666667 0 1 1 60.330666-60.330666l211.2 211.2a42.666667 42.666667 0 0 1 0 60.330666l-211.2 211.2a42.666667 42.666667 0 1 1-60.330666-60.330666L562.005333 384z"  horiz-adv-x="1024" />
      
      <glyph glyph-name="youxiangshuangjiantou" unicode="&#59131;" d="M313.301333 625.365333l211.2-211.2a42.666667 42.666667 0 0 0 0-60.330666l-211.2-211.2a42.666667 42.666667 0 0 0-60.330666 60.330666L434.005333 384 252.970667 565.034667a42.666667 42.666667 0 1 0 60.330666 60.330666z m256 0l211.2-211.2a42.666667 42.666667 0 0 0 0-60.330666l-211.2-211.2a42.666667 42.666667 0 0 0-60.330666 60.330666L690.005333 384l-181.034666 181.034667a42.666667 42.666667 0 0 0 60.330666 60.330666z"  horiz-adv-x="1024" />
      
      <glyph glyph-name="youjian" unicode="&#59132;" d="M768 768a170.666667 170.666667 0 0 0 170.666667-170.666667v-426.666666a170.666667 170.666667 0 0 0-170.666667-170.666667H256a170.666667 170.666667 0 0 0-170.666667 170.666667V597.333333a170.666667 170.666667 0 0 0 170.666667 170.666667h512z m83.370667-152.362667l-228.608-194.432a170.666667 170.666667 0 0 0-213.802667-5.930666l-7.253333 5.802666-229.12 194.517334c-0.810667-3.84-1.408-7.850667-1.706667-11.904L170.666667 597.333333v-426.666666a85.333333 85.333333 0 0 1 78.933333-85.12L256 85.333333h512a85.333333 85.333333 0 0 1 85.12 78.933334L853.333333 170.666667V597.333333c0 6.272-0.682667 12.373333-1.962666 18.304zM768 682.666667H256c-9.002667 0-17.706667-1.408-25.856-3.968l226.816-192.554667a85.333333 85.333333 0 0 1 104.746667-4.437333l5.76 4.48 226.261333 192.512a84.992 84.992 0 0 1-19.370667 3.754666L768 682.666667z"  horiz-adv-x="1024" />
      
      <glyph glyph-name="zhaopian" unicode="&#59133;" d="M768 768a170.666667 170.666667 0 0 0 170.666667-170.666667v-426.666666a170.666667 170.666667 0 0 0-170.666667-170.666667H256a170.666667 170.666667 0 0 0-170.666667 170.666667V597.333333a170.666667 170.666667 0 0 0 170.666667 170.666667h512z m0-85.333333H256a85.333333 85.333333 0 0 1-85.12-78.933334L170.666667 597.333333v-426.666666a85.333333 85.333333 0 0 1 78.933333-85.12L256 85.333333h17.578667l233.258666 233.173334a128 128 0 0 0 174.848 5.76l6.144-5.76 163.968-163.925334a85.333333 85.333333 0 0 1 1.28 9.728L853.333333 170.666667V597.333333a85.333333 85.333333 0 0 1-78.933333 85.12L768 682.666667z m-196.821333-420.949334l-4.010667-3.541333L394.325333 85.333333H768c9.685333 0 19.029333 1.621333 27.733333 4.608l-168.234666 168.234667a42.666667 42.666667 0 0 1-56.32 3.541333zM341.333333 597.333333a85.333333 85.333333 0 1 0 0-170.666666 85.333333 85.333333 0 0 0 0 170.666666z"  horiz-adv-x="1024" />
      
      <glyph glyph-name="youshangjiantou" unicode="&#59134;" d="M608.682667 540.117333L286.165333 217.6a42.666667 42.666667 0 0 1 60.330667-60.330667l322.517333 322.517334a8.533333 8.533333 0 0 0 14.549334-6.058667V213.333333a42.666667 42.666667 0 0 1 85.333333 0V554.666667a85.333333 85.333333 0 0 1-85.333333 85.333333h-341.333334a42.666667 42.666667 0 0 1 0-85.333333h260.394667a8.533333 8.533333 0 0 0 6.058667-14.549334z"  horiz-adv-x="1024" />
      
      <glyph glyph-name="yunjinyong" unicode="&#59135;" d="M180.138667 776.234667L934.4 21.973333a42.666667 42.666667 0 0 0-56.32-63.914666l-4.053333 3.584-55.765334 55.765333A255.36 255.36 0 0 0 725.333333 0H298.666667A256 256 0 0 0 213.674667 497.536a298.325333 298.325333 0 0 0 15.061333 109.354667L119.765333 715.904a42.666667 42.666667 0 0 0-3.541333 56.32l3.541333 4.010667a42.666667 42.666667 0 0 0 60.373334 0zM298.666667 512l0.256-10.368 2.986666-63.488-59.904-21.077333A170.752 170.752 0 0 1 298.666667 85.333333h426.666666c7.936 0 15.744 0.554667 23.381334 1.578667L299.946667 535.68C299.093333 527.914667 298.666667 520.021333 298.666667 512z m213.333333 298.666667a298.666667 298.666667 0 0 0 298.325333-313.130667 256.128 256.128 0 0 0 159.274667-318.293333l-3.925333-11.477334a42.154667 42.154667 0 0 0-80.298667 25.344l5.802667 22.442667 1.066666 4.48a170.666667 170.666667 0 0 1-199.850666 203.477333c-2.218667-0.426667-5.418667-1.450667-9.514667-3.072l-9.472-3.968c-18.346667-8.106667-39.808-4.053333-53.973333 10.154667l-6.826667 6.826667a35.456 35.456 0 0 0 7.125333 55.594666l3.925334 2.005334A255.701333 255.701333 0 0 0 725.333333 512a213.333333 213.333333 0 0 1-303.146666 193.493333l-9.813334-4.821333a46.08 46.08 0 0 0-54.101333 8.149333l-2.005333 1.962667a38.698667 38.698667 0 0 0 0 54.741333l3.84 3.370667 4.522666 2.986667A297.386667 297.386667 0 0 0 512 810.666667z"  horiz-adv-x="1024" />
      
      <glyph glyph-name="zhaopianbeifen" unicode="&#59136;" d="M725.333333 810.666667a213.333333 213.333333 0 0 0 213.12-204.074667L938.666667 597.333333v-174.464a42.666667 42.666667 0 0 0-85.034667-4.949333L853.333333 422.826667V597.333333a128 128 0 0 1-120.490666 127.786667L725.333333 725.333333H213.333333a128 128 0 0 1-127.786666-120.490666L85.333333 597.333333v-426.666666a128 128 0 0 1 106.368-126.165334l26.794667 28.330667 245.674667 245.674667a128 128 0 0 0 174.848 5.76l6.144-5.76 77.226666-77.226667a42.666667 42.666667 0 0 0-56.32-63.829333l-4.053333 3.541333-77.184 77.184a42.666667 42.666667 0 0 1-56.32 3.541333l-4.010667-3.541333L308.906667 42.666667H725.333333a42.666667 42.666667 0 0 0 4.992-85.034667L725.333333-42.666667H209.152c-1.152 0-2.346667 0-3.541333 0.085334L213.333333-42.666667a213.333333 213.333333 0 0 0-213.12 204.074667L0 170.666667V597.333333a213.333333 213.333333 0 0 0 204.074667 213.12L213.333333 810.666667h512z m95.701334-504.661334l60.330666-60.373333 60.330667 60.373333a42.666667 42.666667 0 0 0 60.330667-60.373333l-60.330667-60.330667 60.330667-60.330666a42.666667 42.666667 0 0 0-60.330667-60.330667l-60.330667 60.330667-60.330666-60.330667a42.666667 42.666667 0 0 0-60.373334 60.330667l60.373334 60.330666-60.373334 60.330667a42.666667 42.666667 0 0 0 60.373334 60.373333zM298.666667 597.333333a85.333333 85.333333 0 1 0 0-170.666666 85.333333 85.333333 0 0 0 0 170.666666z"  horiz-adv-x="1024" />
      
      <glyph glyph-name="zuojiantou" unicode="&#59137;" d="M461.994667 384l181.034666-181.034667a42.666667 42.666667 0 1 0-60.330666-60.330666l-211.2 211.2a42.666667 42.666667 0 0 0 0 60.330666l211.2 211.2a42.666667 42.666667 0 1 0 60.330666-60.330666L461.994667 384z"  horiz-adv-x="1024" />
      
      <glyph glyph-name="zuoshangjiantou" unicode="&#59138;" d="M416.213333 540.117333l322.517334-322.517333a42.666667 42.666667 0 0 0-60.330667-60.330667L355.882667 479.786667A8.533333 8.533333 0 0 1 341.333333 473.728V213.333333a42.666667 42.666667 0 0 0-85.333333 0V554.666667a85.333333 85.333333 0 0 0 85.333333 85.333333h341.333334a42.666667 42.666667 0 0 0 0-85.333333H422.272a8.533333 8.533333 0 0 1-6.058667-14.549334z"  horiz-adv-x="1024" />
      
      <glyph glyph-name="IP" unicode="&#59139;" d="M768 810.666667a170.666667 170.666667 0 0 0 170.666667-170.666667v-298.666667a170.666667 170.666667 0 0 0-170.666667-170.666666h-192v-85.333334H682.666667a42.666667 42.666667 0 0 0 0-85.333333H384a42.666667 42.666667 0 0 0 0 85.333333h106.666667v85.333334H256a170.666667 170.666667 0 0 0-170.453333 162.133333L85.333333 341.333333V640a170.666667 170.666667 0 0 0 170.666667 170.666667z m0-85.333334H256a85.333333 85.333333 0 0 1-85.333333-85.333333v-298.666667a85.333333 85.333333 0 0 1 85.333333-85.333333h512a85.333333 85.333333 0 0 1 85.333333 85.333333V640a85.333333 85.333333 0 0 1-85.333333 85.333333zM341.333333 640a42.666667 42.666667 0 0 0 42.666667-42.666667v-256a42.666667 42.666667 0 0 0-85.333333 0V597.333333a42.666667 42.666667 0 0 0 42.666666 42.666667z m298.666667 0a128 128 0 0 0 0-256h-85.333333v-42.666667a42.666667 42.666667 0 0 0-85.333334 0V618.666667a21.333333 21.333333 0 0 0 21.333334 21.333333H640z m0-85.333333h-85.333333v-85.333334h85.333333a42.666667 42.666667 0 0 1 0 85.333334z"  horiz-adv-x="1024" />
      
      <glyph glyph-name="zhexiantu" unicode="&#59140;" d="M213.333333 725.333333v-597.333333a42.666667 42.666667 0 0 1 42.666667-42.666667h597.333333a42.666667 42.666667 0 0 0 0-85.333333H213.333333a85.333333 85.333333 0 0 0-85.333333 85.333333V725.333333a42.666667 42.666667 0 1 0 85.333333 0z m682.666667-128a42.666667 42.666667 0 0 0 0-60.330666l-183.168-183.168a42.666667 42.666667 0 0 0-60.330667 0L554.666667 451.626667 401.664 298.666667A42.666667 42.666667 0 0 0 341.333333 358.997333l183.168 183.168a42.666667 42.666667 0 0 0 60.330667 0L682.666667 444.373333 835.669333 597.333333A42.666667 42.666667 0 0 0 896 597.333333z"  horiz-adv-x="1024" />
      
      <glyph glyph-name="xiangshangjiantou" unicode="&#59141;" d="M512 424.533333l181.034667-181.034666a42.666667 42.666667 0 1 1 60.330666 60.330666l-211.2 211.2a42.666667 42.666667 0 0 1-60.330666 0l-211.2-211.2a42.666667 42.666667 0 1 1 60.330666-60.330666L512 424.533333z"  horiz-adv-x="1024" />
      
      <glyph glyph-name="yun" unicode="&#59142;" d="M725.333333 0H298.666667A256 256 0 0 0 213.674667 497.536a298.666667 298.666667 0 1 0 596.650666 0A256 256 0 0 0 725.333333 0z m0 512a213.333333 213.333333 0 1 1-426.410666-10.368l2.986666-63.488-59.904-21.077333A170.752 170.752 0 0 1 298.666667 85.333333h426.666666a170.666667 170.666667 0 1 1-119.68 292.394667c-7.296-7.168-15.189333-17.877333-23.594666-32.085333-12.032-20.437333-36.693333-29.653333-59.178667-22.186667a37.632 37.632 0 0 0-21.461333 53.205333c10.197333 19.413333 19.541333 34.176 28.074666 44.330667A256.128 256.128 0 0 0 725.333333 512z"  horiz-adv-x="1024" />
      
      <glyph glyph-name="xuanzeqi" unicode="&#59143;" d="M725.333333 810.666667a170.666667 170.666667 0 0 0 170.666667-170.666667v-512a170.666667 170.666667 0 0 0-170.666667-170.666667H298.666667a170.666667 170.666667 0 0 0-170.666667 170.666667V640a170.666667 170.666667 0 0 0 170.666667 170.666667h426.666666z m0-85.333334H298.666667a85.333333 85.333333 0 0 1-85.12-78.933333L213.333333 640v-512a85.333333 85.333333 0 0 1 78.933334-85.12L298.666667 42.666667h426.666666a85.333333 85.333333 0 0 1 85.12 78.933333L810.666667 128V640a85.333333 85.333333 0 0 1-78.933334 85.12L725.333333 725.333333zM405.418667 538.752a21.333333 21.333333 0 0 0 10.837333-2.901333l221.696-129.28a21.333333 21.333333 0 0 0-4.906667-38.954667l-78.762666-22.528 69.333333-120.106667a42.666667 42.666667 0 0 0-73.898667-42.666666l-69.333333 120.064-58.88-56.96a21.333333 21.333333 0 0 0-36.181333 15.232l-1.152 256.682666a21.333333 21.333333 0 0 0 21.248 21.418667z"  horiz-adv-x="1024" />
      
      <glyph glyph-name="zuoxiangshuangjiantou" unicode="&#59144;" d="M710.698667 625.365333l-211.2-211.2a42.666667 42.666667 0 0 1 0-60.330666l211.2-211.2a42.666667 42.666667 0 0 1 60.330666 60.330666L589.994667 384l181.034666 181.034667a42.666667 42.666667 0 1 1-60.330666 60.330666z m-256 0l-211.2-211.2a42.666667 42.666667 0 0 1 0-60.330666l211.2-211.2a42.666667 42.666667 0 0 1 60.330666 60.330666L333.994667 384l181.034666 181.034667a42.666667 42.666667 0 0 1-60.330666 60.330666z"  horiz-adv-x="1024" />
      
      <glyph glyph-name="daohang" unicode="&#59145;" d="M110.421333 728.874667a85.333333 85.333333 0 0 1-0.853333-50.389334l170.496-587.733333a102.4 102.4 0 0 1 189.653333-17.834667l118.485334 233.386667a42.666667 42.666667 0 0 0 22.4 20.394667l189.696 74.709333a102.4 102.4 0 0 1-5.589334 192.597333L218.112 783.317333a85.333333 85.333333 0 0 1-105.386667-48.213333l-2.304-6.229333z m251.605334-614.4L191.488 702.293333 768.085333 512.853333a17.066667 17.066667 0 0 0 0.938667-32.085333l-189.738667-74.752a128 128 0 0 1-67.2-61.141333l-118.485333-233.386667a17.066667 17.066667 0 0 0-31.573333 2.986667z"  horiz-adv-x="1024" />
      
      <glyph glyph-name="jingshi1" unicode="&#59146;" d="M512-42.666667C276.352-42.666667 85.333333 148.352 85.333333 384S276.352 810.666667 512 810.666667s426.666667-191.018667 426.666667-426.666667-191.018667-426.666667-426.666667-426.666667z m0 85.333334a341.333333 341.333333 0 1 1 0 682.666666 341.333333 341.333333 0 0 1 0-682.666666z m2.261333 238.549333a55.466667 55.466667 0 1 0 0-110.933333 55.466667 55.466667 0 0 0 0 110.933333zM512 597.333333a42.666667 42.666667 0 0 0 42.666667-42.666666v-170.666667a42.666667 42.666667 0 0 0-85.333334 0V554.666667a42.666667 42.666667 0 0 0 42.666667 42.666666z"  horiz-adv-x="1024" />
      
      <glyph glyph-name="zhaopianjiazaishibai" unicode="&#59147;" d="M725.333333 810.666667a213.333333 213.333333 0 0 0 213.12-204.074667L938.666667 597.333333v-174.464a42.666667 42.666667 0 0 0-85.034667-4.949333L853.333333 422.826667V597.333333a128 128 0 0 1-120.490666 127.786667L725.333333 725.333333H213.333333a128 128 0 0 1-127.786666-120.490666L85.333333 597.333333v-426.666666a128 128 0 0 1 106.368-126.165334l26.794667 28.330667 245.674667 245.674667a128 128 0 0 0 174.848 5.76l6.144-5.76 77.226666-77.226667a42.666667 42.666667 0 0 0-56.32-63.829333l-4.053333 3.541333-77.184 77.184a42.666667 42.666667 0 0 1-56.32 3.541333l-4.010667-3.541333L308.906667 42.666667H725.333333a42.666667 42.666667 0 0 0 4.992-85.034667L725.333333-42.666667H209.152c-1.152 0-2.346667 0-3.541333 0.085334L213.333333-42.666667a213.333333 213.333333 0 0 0-213.12 204.074667L0 170.666667V597.333333a213.333333 213.333333 0 0 0 204.074667 213.12L213.333333 810.666667h512z m95.701334-504.661334l60.330666-60.373333 60.330667 60.373333a42.666667 42.666667 0 0 0 60.330667-60.373333l-60.330667-60.330667 60.330667-60.330666a42.666667 42.666667 0 0 0-60.330667-60.330667l-60.330667 60.330667-60.330666-60.330667a42.666667 42.666667 0 0 0-60.373334 60.330667l60.373334 60.330666-60.373334 60.330667a42.666667 42.666667 0 0 0 60.373334 60.373333zM298.666667 597.333333a85.333333 85.333333 0 1 0 0-170.666666 85.333333 85.333333 0 0 0 0 170.666666z"  horiz-adv-x="1024" />
      
      </font>
</defs>
</svg>
